<svg version="1.1" viewBox="0.0 0.0 1345.3385826771653 724.9711286089239" fill="none" stroke="none" stroke-linecap="square" stroke-miterlimit="10" xmlns:xlink="http://www.w3.org/1999/xlink" xmlns="http://www.w3.org/2000/svg"><clipPath id="p.0"><path d="m0 0l1345.3386 0l0 724.9711l-1345.3386 0l0 -724.9711z" clip-rule="nonzero"/></clipPath><g clip-path="url(#p.0)"><path fill="#000000" fill-opacity="0.0" d="m0 0l1345.3386 0l0 724.9711l-1345.3386 0z" fill-rule="evenodd"/><defs><linearGradient id="p.1" gradientUnits="userSpaceOnUse" gradientTransform="matrix(37.4237710010267 0.0 0.0 37.4237710010267 0.0 0.0)" spreadMethod="pad" x1="-8.442285377465925" y1="10.896292299293986" x2="18.030849918236484" y2="37.34835731419825"><stop offset="0.0" stop-color="#6fa8dc"/><stop offset="1.0" stop-color="#3d85c6"/></linearGradient></defs><path fill="url(#p.1)" d="m1.5065616 90.07874l1345.4802 0l0 634.89764l-1345.4802 0z" fill-rule="evenodd"/><path stroke="#000000" stroke-width="1.0" stroke-linejoin="round" stroke-linecap="butt" d="m1.5065616 90.07874l1345.4802 0l0 634.89764l-1345.4802 0z" fill-rule="evenodd"/><path fill="#cfe2f3" d="m1.5065616 0l1345.4802 0l0 90.07874l-1345.4802 0z" fill-rule="evenodd"/><path stroke="#000000" stroke-width="1.0" stroke-linejoin="round" stroke-linecap="butt" d="m1.5065616 0l1345.4802 0l0 90.07874l-1345.4802 0z" fill-rule="evenodd"/><path fill="#000000" fill-opacity="0.0" d="m920.04724 599.1706l425.29138 0l0 97.44885l-425.29138 0z" fill-rule="evenodd"/><path fill="#000000" d="m980.4711 619.57996l12.328125 0q4.15625 0 6.34375 0.625q2.9375 0.875 5.03125 3.09375q2.109375 2.203125 3.203125 5.40625q1.09375 3.1875 1.09375 7.890625q0 4.125 -1.03125 7.109375q-1.25 3.640625 -3.578125 5.890625q-1.75 1.71875 -4.734375 2.671875q-2.234375 0.703125 -5.96875 0.703125l-12.6875 0l0 -33.390625zm6.734375 5.640625l0 22.125l5.046875 0q2.8125 0 4.078125 -0.328125q1.640625 -0.40625 2.71875 -1.375q1.078125 -0.984375 1.765625 -3.21875q0.6875 -2.25 0.6875 -6.125q0 -3.875 -0.6875 -5.9375q-0.6875 -2.078125 -1.921875 -3.234375q-1.21875 -1.171875 -3.109375 -1.578125q-1.421875 -0.328125 -5.546875 -0.328125l-3.03125 0zm40.943665 20.046875l6.375 1.078125q-1.21875 3.5 -3.875 5.34375q-2.65625 1.828125 -6.640625 1.828125q-6.3125 0 -9.34375 -4.125q-2.390625 -3.296875 -2.390625 -8.34375q0 -6.0 3.140625 -9.40625q3.140625 -3.40625 7.953125 -3.40625q5.390625 0 8.515625 3.5625q3.125 3.5625 2.984375 10.921875l-16.03125 0q0.0625 2.84375 1.546875 4.4375q1.484375 1.578125 3.6875 1.578125q1.5 0 2.515625 -0.8125q1.03125 -0.828125 1.5625 -2.65625zm0.359375 -6.46875q-0.0625 -2.78125 -1.4375 -4.21875q-1.359375 -1.453125 -3.3125 -1.453125q-2.109375 0 -3.46875 1.53125q-1.359375 1.515625 -1.34375 4.140625l9.5625 0zm32.666748 -2.875l-6.296875 1.140625q-0.328125 -1.890625 -1.453125 -2.84375q-1.125 -0.953125 -2.921875 -0.953125q-2.390625 0 -3.828125 1.65625q-1.421875 1.640625 -1.421875 5.515625q0 4.3125 1.4375 6.09375q1.453125 1.765625 3.890625 1.765625q1.828125 0 2.984375 -1.03125q1.171875 -1.046875 1.640625 -3.5625l6.296875 1.0625q-0.984375 4.328125 -3.765625 6.546875q-2.78125 2.203125 -7.4375 2.203125q-5.3125 0 -8.46875 -3.34375q-3.15625 -3.359375 -3.15625 -9.28125q0 -5.984375 3.15625 -9.3125q3.171875 -3.34375 8.578125 -3.34375q4.421875 0 7.03125 1.90625q2.609375 1.890625 3.734375 5.78125zm10.994873 17.046875l-6.40625 0l0 -24.1875l5.9375 0l0 3.4375q1.53125 -2.4375 2.75 -3.203125q1.21875 -0.78125 2.765625 -0.78125q2.1875 0 4.21875 1.203125l-1.984375 5.578125q-1.609375 -1.046875 -3.0 -1.046875q-1.34375 0 -2.28125 0.75q-0.9375 0.734375 -1.46875 2.671875q-0.53125 1.9375 -0.53125 8.109375l0 7.46875zm26.031738 -7.703125l6.375 1.078125q-1.21875 3.5 -3.875 5.34375q-2.65625 1.828125 -6.640625 1.828125q-6.3125 0 -9.34375 -4.125q-2.390625 -3.296875 -2.390625 -8.34375q0 -6.0 3.140625 -9.40625q3.140625 -3.40625 7.953125 -3.40625q5.390625 0 8.515625 3.5625q3.125 3.5625 2.984375 10.921875l-16.03125 0q0.0625 2.84375 1.546875 4.4375q1.484375 1.578125 3.6875 1.578125q1.5 0 2.515625 -0.8125q1.03125 -0.828125 1.5625 -2.65625zm0.359375 -6.46875q-0.0625 -2.78125 -1.4375 -4.21875q-1.359375 -1.453125 -3.3125 -1.453125q-2.109375 0 -3.46875 1.53125q-1.359375 1.515625 -1.34375 4.140625l9.5625 0zm16.369873 -2.640625l-5.8125 -1.046875q0.96875 -3.515625 3.359375 -5.1875q2.40625 -1.6875 7.109375 -1.6875q4.296875 0 6.390625 1.015625q2.09375 1.0 2.9375 2.5625q0.859375 1.5625 0.859375 5.734375l-0.0625 7.46875q0 3.1875 0.296875 4.703125q0.3125 1.515625 1.15625 3.25l-6.328125 0q-0.25 -0.640625 -0.625 -1.890625q-0.15625 -0.5625 -0.21875 -0.75q-1.640625 1.59375 -3.515625 2.390625q-1.859375 0.796875 -3.984375 0.796875q-3.734375 0 -5.890625 -2.03125q-2.15625 -2.03125 -2.15625 -5.125q0 -2.046875 0.984375 -3.65625q0.984375 -1.609375 2.75 -2.453125q1.765625 -0.859375 5.09375 -1.5q4.484375 -0.84375 6.21875 -1.5625l0 -0.640625q0 -1.84375 -0.921875 -2.625q-0.90625 -0.796875 -3.4375 -0.796875q-1.703125 0 -2.671875 0.671875q-0.953125 0.671875 -1.53125 2.359375zm8.5625 5.1875q-1.234375 0.421875 -3.90625 1.0q-2.65625 0.5625 -3.484375 1.109375q-1.25 0.875 -1.25 2.25q0 1.34375 1.0 2.328125q1.0 0.96875 2.5625 0.96875q1.71875 0 3.296875 -1.140625q1.15625 -0.859375 1.53125 -2.109375q0.25 -0.828125 0.25 -3.125l0 -1.28125zm10.338623 4.71875l6.421875 -0.96875q0.40625 1.859375 1.65625 2.828125q1.265625 0.96875 3.515625 0.96875q2.484375 0 3.734375 -0.90625q0.84375 -0.640625 0.84375 -1.71875q0 -0.71875 -0.453125 -1.203125q-0.484375 -0.453125 -2.140625 -0.84375q-7.75 -1.703125 -9.8125 -3.125q-2.875 -1.953125 -2.875 -5.4375q0 -3.140625 2.484375 -5.28125q2.484375 -2.140625 7.703125 -2.140625q4.953125 0 7.375 1.625q2.421875 1.609375 3.328125 4.765625l-6.046875 1.125q-0.375 -1.421875 -1.46875 -2.171875q-1.078125 -0.75 -3.078125 -0.75q-2.53125 0 -3.625 0.703125q-0.734375 0.5 -0.734375 1.296875q0 0.6875 0.640625 1.171875q0.875 0.640625 5.984375 1.796875q5.109375 1.15625 7.140625 2.84375q2.0 1.71875 2.0 4.765625q0 3.328125 -2.78125 5.71875q-2.765625 2.390625 -8.21875 2.390625q-4.9375 0 -7.828125 -2.0q-2.875 -2.015625 -3.765625 -5.453125zm42.2135 -0.796875l6.375 1.078125q-1.21875 3.5 -3.875 5.34375q-2.65625 1.828125 -6.640625 1.828125q-6.3125 0 -9.34375 -4.125q-2.390625 -3.296875 -2.390625 -8.34375q0 -6.0 3.140625 -9.40625q3.140625 -3.40625 7.953125 -3.40625q5.390625 0 8.515625 3.5625q3.125 3.5625 2.984375 10.921875l-16.03125 0q0.0625 2.84375 1.546875 4.4375q1.484375 1.578125 3.6875 1.578125q1.5 0 2.515625 -0.8125q1.03125 -0.828125 1.5625 -2.65625zm0.359375 -6.46875q-0.0625 -2.78125 -1.4375 -4.21875q-1.359375 -1.453125 -3.3125 -1.453125q-2.109375 0 -3.46875 1.53125q-1.359375 1.515625 -1.34375 4.140625l9.5625 0zm33.760498 14.171875l-5.9375 0l0 -3.546875q-1.484375 2.0625 -3.5 3.078125q-2.015625 1.015625 -4.0625 1.015625q-4.171875 0 -7.15625 -3.359375q-2.96875 -3.359375 -2.96875 -9.375q0 -6.15625 2.890625 -9.34375q2.90625 -3.203125 7.328125 -3.203125q4.046875 0 7.015625 3.359375l0 -12.015625l6.390625 0l0 33.390625zm-17.078125 -12.625q0 3.875 1.0625 5.609375q1.5625 2.5 4.328125 2.5q2.21875 0 3.765625 -1.875q1.546875 -1.875 1.546875 -5.609375q0 -4.171875 -1.5 -6.0q-1.5 -1.84375 -3.84375 -1.84375q-2.28125 0 -3.828125 1.8125q-1.53125 1.8125 -1.53125 5.40625zm36.18091 -11.5625l5.96875 0l0 3.546875q1.15625 -1.828125 3.140625 -2.953125q1.984375 -1.140625 4.390625 -1.140625q4.21875 0 7.15625 3.296875q2.9375 3.296875 2.9375 9.203125q0 6.0625 -2.96875 9.421875q-2.953125 3.359375 -7.171875 3.359375q-2.0 0 -3.625 -0.796875q-1.625 -0.796875 -3.4375 -2.734375l0 12.1875l-6.390625 0l0 -33.390625zm6.328125 11.6875q0 4.078125 1.609375 6.03125q1.625 1.9375 3.953125 1.9375q2.234375 0 3.703125 -1.78125q1.484375 -1.796875 1.484375 -5.875q0 -3.8125 -1.53125 -5.65625q-1.515625 -1.84375 -3.78125 -1.84375q-2.34375 0 -3.890625 1.8125q-1.546875 1.8125 -1.546875 5.375zm22.421265 12.5l0 -33.390625l6.734375 0l0 13.140625l13.21875 0l0 -13.140625l6.734375 0l0 33.390625l-6.734375 0l0 -14.609375l-13.21875 0l0 14.609375l-6.734375 0z" fill-rule="nonzero"/><path fill="#000000" d="m1052.0734 718.7831l-4.40625 0q-3.484375 -5.25 -5.3125 -10.921875q-1.8125 -5.671875 -1.8125 -10.984375q0 -6.59375 2.25 -12.46875q1.96875 -5.09375 4.96875 -9.40625l4.375 0q-3.125 6.90625 -4.296875 11.75q-1.171875 4.84375 -1.171875 10.265625q0 3.734375 0.6875 7.65625q0.703125 3.90625 1.90625 7.4375q0.796875 2.328125 2.8125 6.671875zm5.0057373 -9.8125l0 -33.390625l22.890625 0l0 5.640625l-16.140625 0l0 7.90625l13.9375 0l0 5.65625l-13.9375 0l0 14.1875l-6.75 0zm44.327515 0l0 -3.625q-1.3125 1.9375 -3.46875 3.0625q-2.15625 1.109375 -4.546875 1.109375q-2.4375 0 -4.375 -1.0625q-1.9375 -1.078125 -2.796875 -3.015625q-0.859375 -1.9375 -0.859375 -5.359375l0 -15.296875l6.390625 0l0 11.109375q0 5.109375 0.34375 6.265625q0.359375 1.140625 1.296875 1.8125q0.9375 0.671875 2.375 0.671875q1.640625 0 2.9375 -0.890625q1.296875 -0.90625 1.765625 -2.234375q0.484375 -1.34375 0.484375 -6.53125l0 -10.203125l6.40625 0l0 24.1875l-5.953125 0zm23.671387 -24.1875l0 5.09375l-4.375 0l0 9.75q0 2.96875 0.125 3.453125q0.125 0.484375 0.5625 0.8125q0.453125 0.3125 1.09375 0.3125q0.890625 0 2.578125 -0.609375l0.546875 4.96875q-2.234375 0.953125 -5.0625 0.953125q-1.734375 0 -3.125 -0.578125q-1.375 -0.578125 -2.03125 -1.5q-0.65625 -0.921875 -0.90625 -2.5q-0.203125 -1.125 -0.203125 -4.515625l0 -10.546875l-2.9375 0l0 -5.09375l2.9375 0l0 -4.8125l6.421875 -3.734375l0 8.546875l4.375 0zm20.365112 24.1875l0 -3.625q-1.3125 1.9375 -3.46875 3.0625q-2.15625 1.109375 -4.546875 1.109375q-2.4375 0 -4.375 -1.0625q-1.9375 -1.078125 -2.796875 -3.015625q-0.859375 -1.9375 -0.859375 -5.359375l0 -15.296875l6.390625 0l0 11.109375q0 5.109375 0.34375 6.265625q0.359375 1.140625 1.296875 1.8125q0.9375 0.671875 2.375 0.671875q1.640625 0 2.9375 -0.890625q1.296875 -0.90625 1.765625 -2.234375q0.484375 -1.34375 0.484375 -6.53125l0 -10.203125l6.40625 0l0 24.1875l-5.953125 0zm18.71814 0l-6.40625 0l0 -24.1875l5.9375 0l0 3.4375q1.53125 -2.4375 2.75 -3.203125q1.21875 -0.78125 2.765625 -0.78125q2.1875 0 4.21875 1.203125l-1.984375 5.578125q-1.609375 -1.046875 -3.0 -1.046875q-1.34375 0 -2.28125 0.75q-0.9375 0.734375 -1.46875 2.671875q-0.53125 1.9375 -0.53125 8.109375l0 7.46875zm26.031738 -7.703125l6.375 1.078125q-1.21875 3.5 -3.875 5.34375q-2.65625 1.828125 -6.640625 1.828125q-6.3125 0 -9.34375 -4.125q-2.390503 -3.296875 -2.390503 -8.34375q0 -6.0 3.140503 -9.40625q3.140625 -3.40625 7.953125 -3.40625q5.390625 0 8.515625 3.5625q3.125 3.5625 2.984375 10.921875l-16.03125 0q0.0625 2.84375 1.546875 4.4375q1.484375 1.578125 3.6875 1.578125q1.5 0 2.515625 -0.8125q1.03125 -0.828125 1.5625 -2.65625zm0.359375 -6.46875q-0.0625 -2.78125 -1.4375 -4.21875q-1.359375 -1.453125 -3.3125 -1.453125q-2.109375 0 -3.46875 1.53125q-1.359375 1.515625 -1.34375 4.140625l9.5625 0zm22.77002 23.984375q1.890625 -4.046875 2.65625 -6.21875q0.78125 -2.15625 1.4375 -4.984375q0.65625 -2.828125 0.96875 -5.359375q0.328125 -2.546875 0.328125 -5.203125q0 -5.421875 -1.171875 -10.265625q-1.15625 -4.84375 -4.265625 -11.75l4.34375 0q3.4375 4.90625 5.34375 10.390625q1.90625 5.484375 1.90625 11.140625q0 4.765625 -1.5 10.203125q-1.71875 6.109375 -5.640625 12.046875l-4.40625 0z" fill-rule="nonzero"/><path fill="#000000" fill-opacity="0.0" d="m87.07874 626.10895l267.74805 0l0 64.81885l-267.74805 0z" fill-rule="evenodd"/><path fill="#000000" d="m120.84437 667.6277l6.53125 2.078125q-1.5 5.46875 -5.0 8.125q-3.5 2.640625 -8.875 2.640625q-6.640625 0 -10.9375 -4.53125q-4.28125 -4.546875 -4.28125 -12.4375q0 -8.328125 4.3125 -12.9375q4.3125 -4.625 11.328125 -4.625q6.125 0 9.953125 3.625q2.28125 2.140625 3.40625 6.15625l-6.671875 1.59375q-0.59375 -2.609375 -2.46875 -4.109375q-1.875 -1.5 -4.5625 -1.5q-3.71875 0 -6.03125 2.671875q-2.3125 2.65625 -2.3125 8.625q0 6.328125 2.28125 9.03125q2.28125 2.6875 5.921875 2.6875q2.6875 0 4.625 -1.703125q1.9375 -1.71875 2.78125 -5.390625zm28.193642 12.28125l0 -3.625q-1.3125 1.9375 -3.46875 3.0625q-2.15625 1.109375 -4.546875 1.109375q-2.4375 0 -4.375 -1.0625q-1.9375 -1.078125 -2.796875 -3.015625q-0.859375 -1.9375 -0.859375 -5.359375l0 -15.296875l6.390625 0l0 11.109375q0 5.109375 0.34375 6.265625q0.359375 1.140625 1.296875 1.8125q0.9375 0.671875 2.375 0.671875q1.640625 0 2.9375 -0.890625q1.296875 -0.90625 1.765625 -2.234375q0.484375 -1.34375 0.484375 -6.53125l0 -10.203125l6.40625 0l0 24.1875l-5.953125 0zm18.718246 0l-6.40625 0l0 -24.1875l5.9375 0l0 3.4375q1.53125 -2.4375 2.75 -3.203125q1.21875 -0.78125 2.765625 -0.78125q2.1875 0 4.21875 1.203125l-1.984375 5.578125q-1.609375 -1.046875 -3.0 -1.046875q-1.34375 0 -2.28125 0.75q-0.9375 0.734375 -1.46875 2.671875q-0.53125 1.9375 -0.53125 8.109375l0 7.46875zm18.156754 0l-6.40625 0l0 -24.1875l5.9375 0l0 3.4375q1.53125 -2.4375 2.75 -3.203125q1.21875 -0.78125 2.765625 -0.78125q2.1875 0 4.21875 1.203125l-1.984375 5.578125q-1.609375 -1.046875 -3.0 -1.046875q-1.34375 0 -2.28125 0.75q-0.9375 0.734375 -1.46875 2.671875q-0.53125 1.9375 -0.53125 8.109375l0 7.46875zm26.031754 -7.703125l6.375 1.078125q-1.21875 3.5 -3.875 5.34375q-2.65625 1.828125 -6.640625 1.828125q-6.3125 0 -9.34375 -4.125q-2.390625 -3.296875 -2.390625 -8.34375q0 -6.0 3.140625 -9.40625q3.140625 -3.40625 7.953125 -3.40625q5.390625 0 8.515625 3.5625q3.125 3.5625 2.984375 10.921875l-16.03125 0q0.0625 2.84375 1.546875 4.4375q1.484375 1.578125 3.6875 1.578125q1.5 0 2.515625 -0.8125q1.03125 -0.828125 1.5625 -2.65625zm0.359375 -6.46875q-0.0625 -2.78125 -1.4375 -4.21875q-1.359375 -1.453125 -3.3125 -1.453125q-2.109375 0 -3.46875 1.53125q-1.359375 1.515625 -1.34375 4.140625l9.5625 0zm33.588608 14.171875l-6.40625 0l0 -12.34375q0 -3.921875 -0.40625 -5.0625q-0.40625 -1.15625 -1.34375 -1.796875q-0.921875 -0.640625 -2.21875 -0.640625q-1.65625 0 -2.984375 0.921875q-1.3125 0.90625 -1.8125 2.40625q-0.484375 1.5 -0.484375 5.5625l0 10.953125l-6.40625 0l0 -24.1875l5.953125 0l0 3.546875q3.171875 -4.09375 7.96875 -4.09375q2.125 0 3.875 0.765625q1.75 0.75 2.65625 1.9375q0.90625 1.1875 1.25 2.6875q0.359375 1.5 0.359375 4.3125l0 15.03125zm17.577621 -24.1875l0 5.09375l-4.375 0l0 9.75q0 2.96875 0.125 3.453125q0.125 0.484375 0.5625 0.8125q0.453125 0.3125 1.09375 0.3125q0.890625 0 2.578125 -0.609375l0.546875 4.96875q-2.234375 0.953125 -5.0625 0.953125q-1.734375 0 -3.125 -0.578125q-1.375 -0.578125 -2.03125 -1.5q-0.65625 -0.921875 -0.90625 -2.5q-0.203125 -1.125 -0.203125 -4.515625l0 -10.546875l-2.9375 0l0 -5.09375l2.9375 0l0 -4.8125l6.421875 -3.734375l0 8.546875l4.375 0zm17.233887 0l5.96875 0l0 3.546875q1.15625 -1.828125 3.140625 -2.953125q1.984375 -1.140625 4.390625 -1.140625q4.21875 0 7.15625 3.296875q2.9375 3.296875 2.9375 9.203125q0 6.0625 -2.96875 9.421875q-2.953125 3.359375 -7.171875 3.359375q-2.0 0 -3.625 -0.796875q-1.625 -0.796875 -3.4375 -2.734375l0 12.1875l-6.390625 0l0 -33.390625zm6.328125 11.6875q0 4.078125 1.609375 6.03125q1.625 1.9375 3.953125 1.9375q2.234375 0 3.703125 -1.78125q1.484375 -1.796875 1.484375 -5.875q0 -3.8125 -1.53125 -5.65625q-1.515625 -1.84375 -3.78125 -1.84375q-2.34375 0 -3.890625 1.8125q-1.546875 1.8125 -1.546875 5.375zm22.421356 12.5l0 -33.390625l6.734375 0l0 13.140625l13.21875 0l0 -13.140625l6.734375 0l0 33.390625l-6.734375 0l0 -14.609375l-13.21875 0l0 14.609375l-6.734375 0z" fill-rule="nonzero"/><defs><linearGradient id="p.2" gradientUnits="userSpaceOnUse" gradientTransform="matrix(6.888238863886245 0.0 0.0 6.888238863886245 0.0 0.0)" spreadMethod="pad" x1="180.5315166750759" y1="62.85286364379664" x2="180.53149286028113" y2="69.74110250764171"><stop offset="0.0" stop-color="#ffffff"/><stop offset="1.0" stop-color="#b3b3b3"/></linearGradient></defs><path fill="url(#p.2)" d="m1265.4347 433.52344c-7.883667 -2.2276 -6.619385 2.5174866 -9.817383 5.2291565c-3.19812 2.71167 -7.5114746 6.1984253 -9.37085 11.040924c-1.8592529 4.842499 -3.9421387 13.074799 -1.7852783 18.014069c2.1569824 4.93927 7.7354736 9.975189 14.7265625 11.621613c6.991211 1.6464233 20.749878 1.2593079 27.220459 -1.743042c6.470459 -3.0023499 8.85083 -12.009705 11.602661 -16.271027c2.751831 -4.261322 10.337769 -4.648285 4.908325 -9.2969055c-5.4293213 -4.6486206 -29.60083 -16.367188 -37.484497 -18.594788z" fill-rule="evenodd"/><path stroke="#000000" stroke-width="1.0" stroke-linejoin="round" stroke-linecap="butt" d="m1265.4347 433.52344c-7.883667 -2.2276 -6.619385 2.5174866 -9.817383 5.2291565c-3.19812 2.71167 -7.5114746 6.1984253 -9.37085 11.040924c-1.8592529 4.842499 -3.9421387 13.074799 -1.7852783 18.014069c2.1569824 4.93927 7.7354736 9.975189 14.7265625 11.621613c6.991211 1.6464233 20.749878 1.2593079 27.220459 -1.743042c6.470459 -3.0023499 8.85083 -12.009705 11.602661 -16.271027c2.751831 -4.261322 10.337769 -4.648285 4.908325 -9.2969055c-5.4293213 -4.6486206 -29.60083 -16.367188 -37.484497 -18.594788z" fill-rule="evenodd"/><defs><linearGradient id="p.3" gradientUnits="userSpaceOnUse" gradientTransform="matrix(3.9826199270268945 0.0 0.0 3.9826199270268945 0.0 0.0)" spreadMethod="pad" x1="315.0500209560527" y1="109.86543943510782" x2="315.0500003613189" y2="113.84805936208146"><stop offset="0.0" stop-color="#ffffff"/><stop offset="1.0" stop-color="#b3b3b3"/></linearGradient></defs><path fill="url(#p.3)" d="m1254.7245 446.88855c0.37182617 0.8717041 0.6693115 4.1647034 2.2312012 5.230133c1.5618896 1.0653992 4.8345947 1.5498047 7.140259 1.1623535c2.305664 -0.38745117 5.3548584 -1.2594604 6.6936035 -3.4870605c1.3387451 -2.2276306 2.3798828 -7.8448486 1.338623 -9.878571c-1.0412598 -2.033722 -5.2807617 -2.5174866 -7.5863037 -2.323761c-2.305542 0.19372559 -6.470093 1.6461182 -6.2469482 3.4861145c0.2232666 1.8399963 5.9500732 7.5538635 7.5863037 7.5538635c1.6362305 0 2.9006348 -6.3916626 2.2312012 -7.5538635c-0.6694336 -1.1622009 -5.727051 -0.58151245 -6.2476807 0.5806885c-0.5206299 1.1622009 2.6031494 5.327057 3.1237793 6.392456" fill-rule="evenodd"/><path stroke="#000000" stroke-width="1.0" stroke-linejoin="round" stroke-linecap="butt" d="m1254.7245 446.88855c0.37182617 0.8717041 0.6693115 4.1647034 2.2312012 5.230133c1.5618896 1.0653992 4.8345947 1.5498047 7.140259 1.1623535c2.305664 -0.38745117 5.3548584 -1.2594604 6.6936035 -3.4870605c1.3387451 -2.2276306 2.3798828 -7.8448486 1.338623 -9.878571c-1.0412598 -2.033722 -5.2807617 -2.5174866 -7.5863037 -2.323761c-2.305542 0.19372559 -6.470093 1.6461182 -6.2469482 3.4861145c0.2232666 1.8399963 5.9500732 7.5538635 7.5863037 7.5538635c1.6362305 0 2.9006348 -6.3916626 2.2312012 -7.5538635c-0.6694336 -1.1622009 -5.727051 -0.58151245 -6.2476807 0.5806885c-0.5206299 1.1622009 2.6031494 5.327057 3.1237793 6.392456" fill-rule="evenodd"/><defs><radialGradient id="p.4" gradientUnits="userSpaceOnUse" gradientTransform="matrix(-6.5277653312999835 -4.809121093937671 4.809121093937671 -6.5277653312999835 0.0 0.0)" spreadMethod="pad" cx="-64.22823030516862" cy="-16.579212860789944" fx="-64.22823030516862" fy="-16.579212860789944" r="6.527765274047852"><stop offset="0.0" stop-color="#f2f2f2" stop-opacity="0.64705884"/><stop offset="0.06428571" stop-color="#ebebeb" stop-opacity="0.69411767"/><stop offset="0.12857142" stop-color="#e4e4e4" stop-opacity="0.74509805"/><stop offset="0.19285713" stop-color="#dedede" stop-opacity="0.79607844"/><stop offset="0.25714284" stop-color="#d8d8d8" stop-opacity="0.84705883"/><stop offset="0.32142854" stop-color="#d4d4d4" stop-opacity="0.8980392"/><stop offset="0.38571426" stop-color="#d0d0d0" stop-opacity="0.9490196"/><stop offset="0.45" stop-color="#cccccc"/><stop offset="1.0" stop-color="#f3f3f3"/></radialGradient></defs><path fill="url(#p.4)" d="m320.93005 422.09378c1.4010925 3.8656006 -1.1642761 9.596619 -0.27075195 13.869843c0.89349365 4.2732544 2.1495361 8.61795 5.631836 11.769562c3.4822998 3.1516113 9.644379 6.323456 15.261932 7.140106c5.617584 0.8166809 12.705994 0.76290894 18.443481 -2.2401123c5.737488 -3.0030212 13.259613 -8.990173 15.981445 -15.778046c2.7218323 -6.787842 2.6611633 -17.677124 0.34957886 -24.949097c-2.311554 -7.2719727 -7.790039 -14.043945 -14.219055 -18.682709c-6.4290466 -4.638733 -15.684174 -8.819214 -24.355133 -9.14978c-8.67099 -0.3305664 -21.197937 3.7280273 -27.670715 7.1663513c-6.472809 3.438324 -11.527771 9.875214 -11.166077 13.463562c0.36166382 3.5883484 9.667206 5.168152 13.336121 8.066528c3.6689148 2.898407 7.276245 5.458191 8.677338 9.3237915z" fill-rule="evenodd"/><path stroke="#000000" stroke-width="1.0" stroke-linejoin="round" stroke-linecap="butt" d="m320.93005 422.09378c1.4010925 3.8656006 -1.1642761 9.596619 -0.27075195 13.869843c0.89349365 4.2732544 2.1495361 8.61795 5.631836 11.769562c3.4822998 3.1516113 9.644379 6.323456 15.261932 7.140106c5.617584 0.8166809 12.705994 0.76290894 18.443481 -2.2401123c5.737488 -3.0030212 13.259613 -8.990173 15.981445 -15.778046c2.7218323 -6.787842 2.6611633 -17.677124 0.34957886 -24.949097c-2.311554 -7.2719727 -7.790039 -14.043945 -14.219055 -18.682709c-6.4290466 -4.638733 -15.684174 -8.819214 -24.355133 -9.14978c-8.67099 -0.3305664 -21.197937 3.7280273 -27.670715 7.1663513c-6.472809 3.438324 -11.527771 9.875214 -11.166077 13.463562c0.36166382 3.5883484 9.667206 5.168152 13.336121 8.066528c3.6689148 2.898407 7.276245 5.458191 8.677338 9.3237915z" fill-rule="evenodd"/><defs><radialGradient id="p.5" gradientUnits="userSpaceOnUse" gradientTransform="matrix(-4.8104720521816215 -3.5439605199988375 3.5439605199988375 -4.8104720521816215 0.0 0.0)" spreadMethod="pad" cx="-89.04372959289248" cy="-23.304157216925102" fx="-89.04372959289248" fy="-23.304157216925102" r="4.810472011566162"><stop offset="0.0" stop-color="#f2f2f2" stop-opacity="0.64705884"/><stop offset="0.06428571" stop-color="#ebebeb" stop-opacity="0.69411767"/><stop offset="0.12857142" stop-color="#e4e4e4" stop-opacity="0.74509805"/><stop offset="0.19285713" stop-color="#dedede" stop-opacity="0.79607844"/><stop offset="0.25714284" stop-color="#d8d8d8" stop-opacity="0.84705883"/><stop offset="0.32142854" stop-color="#d4d4d4" stop-opacity="0.8980392"/><stop offset="0.38571426" stop-color="#d0d0d0" stop-opacity="0.9490196"/><stop offset="0.45" stop-color="#cccccc"/><stop offset="1.0" stop-color="#f3f3f3"/></radialGradient></defs><path fill="url(#p.5)" d="m321.82208 422.14212c1.5287476 -1.5117188 5.837097 -6.935486 9.172485 -9.070221c3.3353882 -2.134735 6.9746704 -3.5570984 10.839905 -3.7381897c3.8652039 -0.18109131 8.443512 0.35876465 12.351349 2.6516113c3.907837 2.2928162 9.410858 6.6400757 11.095642 11.105377c1.6847534 4.4653015 0.110839844 11.805603 -0.986969 15.686432c-1.0978088 3.8808594 -2.7983398 6.047577 -5.599823 7.598633c-2.8014832 1.5510559 -8.0997925 1.8489685 -11.209137 1.7077026c-3.109375 -0.14126587 -4.946228 -0.3222351 -7.4470215 -2.5552979c-2.500763 -2.2330627 -7.6365356 -6.79776 -7.5576477 -10.84314c0.07888794 -4.045349 4.219574 -11.351715 8.030945 -13.429016c3.8113403 -2.077301 11.513458 -0.9949951 14.837219 0.96517944c3.323761 1.960144 5.240082 7.377777 5.1053467 10.795837c-0.13470459 3.4180908 -3.2575989 8.640564 -5.9136353 9.7126465c-2.6560364 1.0720825 -8.044373 -1.0412292 -10.0225525 -3.2801514c-1.9781799 -2.238922 -2.998291 -8.16861 -1.8464966 -10.153442c1.1517944 -1.9848328 6.8033752 -2.9020386 8.757294 -1.7556152c1.9539185 1.1464233 3.9255981 7.191437 2.9661865 8.634094c-0.9593811 1.4426575 -7.2688293 0.018157959 -8.722595 0.02178955" fill-rule="evenodd"/><path stroke="#000000" stroke-width="1.0" stroke-linejoin="round" stroke-linecap="butt" d="m321.82208 422.14212c1.5287476 -1.5117188 5.837097 -6.935486 9.172485 -9.070221c3.3353882 -2.134735 6.9746704 -3.5570984 10.839905 -3.7381897c3.8652039 -0.18109131 8.443512 0.35876465 12.351349 2.6516113c3.907837 2.2928162 9.410858 6.6400757 11.095642 11.105377c1.6847534 4.4653015 0.110839844 11.805603 -0.986969 15.686432c-1.0978088 3.8808594 -2.7983398 6.047577 -5.599823 7.598633c-2.8014832 1.5510559 -8.0997925 1.8489685 -11.209137 1.7077026c-3.109375 -0.14126587 -4.946228 -0.3222351 -7.4470215 -2.5552979c-2.500763 -2.2330627 -7.6365356 -6.79776 -7.5576477 -10.84314c0.07888794 -4.045349 4.219574 -11.351715 8.030945 -13.429016c3.8113403 -2.077301 11.513458 -0.9949951 14.837219 0.96517944c3.323761 1.960144 5.240082 7.377777 5.1053467 10.795837c-0.13470459 3.4180908 -3.2575989 8.640564 -5.9136353 9.7126465c-2.6560364 1.0720825 -8.044373 -1.0412292 -10.0225525 -3.2801514c-1.9781799 -2.238922 -2.998291 -8.16861 -1.8464966 -10.153442c1.1517944 -1.9848328 6.8033752 -2.9020386 8.757294 -1.7556152c1.9539185 1.1464233 3.9255981 7.191437 2.9661865 8.634094c-0.9593811 1.4426575 -7.2688293 0.018157959 -8.722595 0.02178955" fill-rule="evenodd"/><defs><radialGradient id="p.6" gradientUnits="userSpaceOnUse" gradientTransform="matrix(-3.2445317226156263 -2.390304362117716 2.390304362117716 -3.2445317226156263 0.0 0.0)" spreadMethod="pad" cx="-123.01460895727502" cy="-36.619245906484736" fx="-123.01460895727502" fy="-36.619245906484736" r="3.2445316314697266"><stop offset="0.0" stop-color="#f2f2f2" stop-opacity="0.64705884"/><stop offset="0.06428571" stop-color="#ebebeb" stop-opacity="0.69411767"/><stop offset="0.12857142" stop-color="#e4e4e4" stop-opacity="0.74509805"/><stop offset="0.19285713" stop-color="#dedede" stop-opacity="0.79607844"/><stop offset="0.25714284" stop-color="#d8d8d8" stop-opacity="0.84705883"/><stop offset="0.32142854" stop-color="#d4d4d4" stop-opacity="0.8980392"/><stop offset="0.38571426" stop-color="#d0d0d0" stop-opacity="0.9490196"/><stop offset="0.45" stop-color="#cccccc"/><stop offset="1.0" stop-color="#f3f3f3"/></radialGradient></defs><path fill="url(#p.6)" d="m320.4524 421.43268c-2.6575317 -1.1762695 -19.453033 -13.549835 -20.154602 -14.848236c-0.7015686 -1.2984314 12.586121 4.582947 15.945221 7.057678c3.3591003 2.474701 6.866913 8.966827 4.209381 7.790558z" fill-rule="evenodd"/><path stroke="#000000" stroke-width="1.0" stroke-linejoin="round" stroke-linecap="butt" d="m320.4524 421.43268c-2.6575317 -1.1762695 -19.453033 -13.549835 -20.154602 -14.848236c-0.7015686 -1.2984314 12.586121 4.582947 15.945221 7.057678c3.3591003 2.474701 6.866913 8.966827 4.209381 7.790558z" fill-rule="evenodd"/><defs><linearGradient id="p.7" gradientUnits="userSpaceOnUse" gradientTransform="matrix(6.56860811231118 0.0 0.0 6.56860811231118 0.0 0.0)" spreadMethod="pad" x1="159.6043400573669" y1="81.59385323282203" x2="159.60431508373597" y2="88.16246134508573"><stop offset="0.0" stop-color="#ffffff"/><stop offset="1.0" stop-color="#b3b3b3"/></linearGradient></defs><path fill="url(#p.7)" d="m1080.5817 538.6539c-3.1608887 -0.8112793 -4.9941406 -2.3712769 -7.5859375 -2.6207886c-2.5917969 -0.24951172 -5.373169 0.12524414 -7.964966 1.1235962c-2.5917969 0.9984131 -5.1204834 2.3085938 -7.5859375 4.8668213c-2.465454 2.5582275 -5.7528076 7.237854 -7.206909 10.482483c-1.4541016 3.244629 -2.4024658 5.8654175 -1.517456 8.985352c0.88513184 3.119934 2.6555176 6.8639526 6.827881 9.734253c4.172241 2.8703003 11.947632 6.489258 18.206055 7.487549c6.258423 0.998291 14.6032715 -0.062561035 19.344482 -1.4977417c4.741333 -1.4352417 6.8276367 -3.4945068 9.103394 -7.1134644c2.275879 -3.6189575 3.666748 -10.544617 4.551758 -14.600403c0.8848877 -4.055786 1.579956 -7.1134644 0.75805664 -9.734253c-0.8218994 -2.6207275 -3.0976562 -5.1792603 -5.689453 -5.9904175c-2.5917969 -0.8111572 -6.321289 1.310791 -9.86145 1.1236572c-3.5401611 -0.18719482 -8.218628 -1.4354248 -11.379517 -2.246643z" fill-rule="evenodd"/><path stroke="#000000" stroke-width="1.0" stroke-linejoin="round" stroke-linecap="butt" d="m1080.5817 538.6539c-3.1608887 -0.8112793 -4.9941406 -2.3712769 -7.5859375 -2.6207886c-2.5917969 -0.24951172 -5.373169 0.12524414 -7.964966 1.1235962c-2.5917969 0.9984131 -5.1204834 2.3085938 -7.5859375 4.8668213c-2.465454 2.5582275 -5.7528076 7.237854 -7.206909 10.482483c-1.4541016 3.244629 -2.4024658 5.8654175 -1.517456 8.985352c0.88513184 3.119934 2.6555176 6.8639526 6.827881 9.734253c4.172241 2.8703003 11.947632 6.489258 18.206055 7.487549c6.258423 0.998291 14.6032715 -0.062561035 19.344482 -1.4977417c4.741333 -1.4352417 6.8276367 -3.4945068 9.103394 -7.1134644c2.275879 -3.6189575 3.666748 -10.544617 4.551758 -14.600403c0.8848877 -4.055786 1.579956 -7.1134644 0.75805664 -9.734253c-0.8218994 -2.6207275 -3.0976562 -5.1792603 -5.689453 -5.9904175c-2.5917969 -0.8111572 -6.321289 1.310791 -9.86145 1.1236572c-3.5401611 -0.18719482 -8.218628 -1.4354248 -11.379517 -2.246643z" fill-rule="evenodd"/><defs><linearGradient id="p.8" gradientUnits="userSpaceOnUse" gradientTransform="matrix(4.527149074232216 0.0 0.0 4.527149074232216 0.0 0.0)" spreadMethod="pad" x1="234.18327105121003" y1="119.64042610706312" x2="234.18325293362741" y2="124.16757518125908"><stop offset="0.0" stop-color="#ffffff"/><stop offset="1.0" stop-color="#b3b3b3"/></linearGradient></defs><path fill="url(#p.8)" d="m1073.0125 548.7625c-0.25280762 0.6239624 -2.2121582 3.6189575 -1.5167236 3.7437744c0.6954346 0.124816895 5.2469482 -1.6846313 5.689453 -2.994873c0.4423828 -1.3103027 -1.2016602 -4.8668213 -3.034912 -4.8668213c-1.833374 0 -7.0167236 2.8077393 -7.964966 4.8668213c-0.9482422 2.059021 -3.6621094E-4 6.7387695 2.2755127 7.487549c2.275879 0.7487793 8.977173 -1.3101807 11.379517 -2.994873c2.4023438 -1.6847534 3.4768066 -5.0543823 3.0343018 -7.1134644c-0.44262695 -2.059082 -2.5286865 -5.5529175 -5.689453 -5.240967c-3.1608887 0.31201172 -10.620361 4.4921875 -13.275391 7.112854c-2.6551514 2.6206665 -5.2470703 6.427246 -2.6552734 8.611206c2.5917969 2.18396 13.401611 5.7407227 18.206177 4.492676c4.8044434 -1.2480469 10.494385 -8.736145 10.620728 -11.980896c0.12646484 -3.24469 -8.218384 -6.239624 -9.862061 -7.487549" fill-rule="evenodd"/><path stroke="#000000" stroke-width="1.0" stroke-linejoin="round" stroke-linecap="butt" d="m1073.0125 548.7625c-0.25280762 0.6239624 -2.2121582 3.6189575 -1.5167236 3.7437744c0.6954346 0.124816895 5.2469482 -1.6846313 5.689453 -2.994873c0.4423828 -1.3103027 -1.2016602 -4.8668213 -3.034912 -4.8668213c-1.833374 0 -7.0167236 2.8077393 -7.964966 4.8668213c-0.9482422 2.059021 -3.6621094E-4 6.7387695 2.2755127 7.487549c2.275879 0.7487793 8.977173 -1.3101807 11.379517 -2.994873c2.4023438 -1.6847534 3.4768066 -5.0543823 3.0343018 -7.1134644c-0.44262695 -2.059082 -2.5286865 -5.5529175 -5.689453 -5.240967c-3.1608887 0.31201172 -10.620361 4.4921875 -13.275391 7.112854c-2.6551514 2.6206665 -5.2470703 6.427246 -2.6552734 8.611206c2.5917969 2.18396 13.401611 5.7407227 18.206177 4.492676c4.8044434 -1.2480469 10.494385 -8.736145 10.620728 -11.980896c0.12646484 -3.24469 -8.218384 -6.239624 -9.862061 -7.487549" fill-rule="evenodd"/><defs><linearGradient id="p.9" gradientUnits="userSpaceOnUse" gradientTransform="matrix(7.131236622172863 0.0 0.0 7.131236622172863 0.0 0.0)" spreadMethod="pad" x1="156.1887334033548" y1="59.42116543413776" x2="156.1887104000521" y2="66.55240205627352"><stop offset="0.0" stop-color="#ffffff"/><stop offset="1.0" stop-color="#b3b3b3"/></linearGradient></defs><path fill="url(#p.9)" d="m1134.0751 424.3658c-7.295044 -2.3875427 -6.125244 2.6982117 -9.084473 5.6045837c-2.9593506 2.906372 -6.9506836 6.643463 -8.671265 11.833649c-1.720459 5.1901855 -3.6478271 14.01355 -1.6519775 19.307465c1.9958496 5.293915 7.157959 10.691406 13.627197 12.456024c6.4692383 1.7646484 19.200806 1.3497314 25.188232 -1.8681946c5.987549 -3.2178955 8.190186 -12.871979 10.736572 -17.43927c2.5463867 -4.5672607 9.565918 -4.982025 4.541992 -9.9644165c-5.024048 -4.982361 -27.391113 -17.542297 -34.68628 -19.92984z" fill-rule="evenodd"/><path stroke="#000000" stroke-width="1.0" stroke-linejoin="round" stroke-linecap="butt" d="m1134.0751 424.3658c-7.295044 -2.3875427 -6.125244 2.6982117 -9.084473 5.6045837c-2.9593506 2.906372 -6.9506836 6.643463 -8.671265 11.833649c-1.720459 5.1901855 -3.6478271 14.01355 -1.6519775 19.307465c1.9958496 5.293915 7.157959 10.691406 13.627197 12.456024c6.4692383 1.7646484 19.200806 1.3497314 25.188232 -1.8681946c5.987549 -3.2178955 8.190186 -12.871979 10.736572 -17.43927c2.5463867 -4.5672607 9.565918 -4.982025 4.541992 -9.9644165c-5.024048 -4.982361 -27.391113 -17.542297 -34.68628 -19.92984z" fill-rule="evenodd"/><defs><linearGradient id="p.10" gradientUnits="userSpaceOnUse" gradientTransform="matrix(4.123110598892122 0.0 0.0 4.123110598892122 0.0 0.0)" spreadMethod="pad" x1="272.649599164718" y1="103.97100000223165" x2="272.64957927172816" y2="108.09411060107578"><stop offset="0.0" stop-color="#ffffff"/><stop offset="1.0" stop-color="#b3b3b3"/></linearGradient></defs><path fill="url(#p.10)" d="m1124.1644 438.69052c0.3441162 0.93426514 0.61938477 4.4637146 2.0646973 5.6056213c1.4453125 1.1419067 4.473633 1.6610718 6.6071777 1.2458191c2.133545 -0.4152832 4.9552 -1.349884 6.1939697 -3.7374268c1.2387695 -2.3875427 2.2021484 -8.408112 1.2386475 -10.58783c-0.96362305 -2.1797485 -4.8865967 -2.6982422 -7.0198975 -2.4906006c-2.1334229 0.2076416 -5.9871826 1.7642822 -5.7806396 3.7363892c0.20654297 1.9721069 5.5058594 8.096222 7.0198975 8.096222c1.5141602 0 2.684082 -6.850586 2.0646973 -8.096222c-0.61950684 -1.245636 -5.2995605 -0.62323 -5.78125 0.622406c-0.48181152 1.245636 2.4088135 5.7095337 2.890625 6.8514404" fill-rule="evenodd"/><path stroke="#000000" stroke-width="1.0" stroke-linejoin="round" stroke-linecap="butt" d="m1124.1644 438.69052c0.3441162 0.93426514 0.61938477 4.4637146 2.0646973 5.6056213c1.4453125 1.1419067 4.473633 1.6610718 6.6071777 1.2458191c2.133545 -0.4152832 4.9552 -1.349884 6.1939697 -3.7374268c1.2387695 -2.3875427 2.2021484 -8.408112 1.2386475 -10.58783c-0.96362305 -2.1797485 -4.8865967 -2.6982422 -7.0198975 -2.4906006c-2.1334229 0.2076416 -5.9871826 1.7642822 -5.7806396 3.7363892c0.20654297 1.9721069 5.5058594 8.096222 7.0198975 8.096222c1.5141602 0 2.684082 -6.850586 2.0646973 -8.096222c-0.61950684 -1.245636 -5.2995605 -0.62323 -5.78125 0.622406c-0.48181152 1.245636 2.4088135 5.7095337 2.890625 6.8514404" fill-rule="evenodd"/><defs><linearGradient id="p.11" gradientUnits="userSpaceOnUse" gradientTransform="matrix(6.439301820846499 0.0 0.0 6.439301820846499 0.0 0.0)" spreadMethod="pad" x1="150.77088774212427" y1="70.49594015878834" x2="150.770862267003" y2="76.93524197958445"><stop offset="0.0" stop-color="#ffffff"/><stop offset="1.0" stop-color="#b3b3b3"/></linearGradient></defs><path fill="url(#p.11)" d="m1000.13983 456.5353c-2.8740845 -0.77960205 -4.5408936 -2.2788086 -6.897461 -2.5185852c-2.3566284 -0.23980713 -4.885559 0.12033081 -7.2421265 1.079834c-2.3565674 0.95947266 -4.6557617 2.218567 -6.897461 4.677063c-2.2416992 2.458496 -5.230713 6.9556885 -6.5527954 10.073853c-1.3220825 3.118164 -2.1844482 5.6367493 -1.3797607 8.635071c0.80474854 2.998291 2.4145508 6.596344 6.208191 9.354736c3.7936401 2.7584229 10.863342 6.236328 16.553772 7.195709c5.6904297 0.9593811 13.277893 -0.06011963 17.588867 -1.4393921c4.311035 -1.379242 6.2078857 -3.3582458 8.277161 -6.8361206c2.069336 -3.4779053 3.3339844 -10.133575 4.138611 -14.03125c0.80462646 -3.8976746 1.4365845 -6.836151 0.68927 -9.354767c-0.7472534 -2.5186157 -2.8164673 -4.9773865 -5.1730957 -5.756897c-2.3565674 -0.7795105 -5.7475586 1.2597046 -8.966431 1.079834c-3.218872 -0.1798706 -7.4727173 -1.3794556 -10.346741 -2.1590881z" fill-rule="evenodd"/><path stroke="#000000" stroke-width="1.0" stroke-linejoin="round" stroke-linecap="butt" d="m1000.13983 456.5353c-2.8740845 -0.77960205 -4.5408936 -2.2788086 -6.897461 -2.5185852c-2.3566284 -0.23980713 -4.885559 0.12033081 -7.2421265 1.079834c-2.3565674 0.95947266 -4.6557617 2.218567 -6.897461 4.677063c-2.2416992 2.458496 -5.230713 6.9556885 -6.5527954 10.073853c-1.3220825 3.118164 -2.1844482 5.6367493 -1.3797607 8.635071c0.80474854 2.998291 2.4145508 6.596344 6.208191 9.354736c3.7936401 2.7584229 10.863342 6.236328 16.553772 7.195709c5.6904297 0.9593811 13.277893 -0.06011963 17.588867 -1.4393921c4.311035 -1.379242 6.2078857 -3.3582458 8.277161 -6.8361206c2.069336 -3.4779053 3.3339844 -10.133575 4.138611 -14.03125c0.80462646 -3.8976746 1.4365845 -6.836151 0.68927 -9.354767c-0.7472534 -2.5186157 -2.8164673 -4.9773865 -5.1730957 -5.756897c-2.3565674 -0.7795105 -5.7475586 1.2597046 -8.966431 1.079834c-3.218872 -0.1798706 -7.4727173 -1.3794556 -10.346741 -2.1590881z" fill-rule="evenodd"/><defs><linearGradient id="p.12" gradientUnits="userSpaceOnUse" gradientTransform="matrix(4.438030216762296 0.0 0.0 4.438030216762296 0.0 0.0)" spreadMethod="pad" x1="221.17742819159074" y1="103.51337931729756" x2="221.17740971019396" y2="107.95140953402138"><stop offset="0.0" stop-color="#ffffff"/><stop offset="1.0" stop-color="#b3b3b3"/></linearGradient></defs><path fill="url(#p.12)" d="m993.2576 466.2499c-0.2298584 0.5996704 -2.0114746 3.4779053 -1.3791504 3.5978699c0.6323242 0.11993408 4.770813 -1.6189575 5.1730957 -2.8781738c0.4022827 -1.2591858 -1.0925293 -4.677063 -2.7594604 -4.677063c-1.6669312 0 -6.379944 2.6982727 -7.2421265 4.677063c-0.8621826 1.9787903 -2.4414062E-4 6.4761047 2.0690308 7.195709c2.069275 0.719574 8.162476 -1.2591248 10.346741 -2.8781738c2.1842651 -1.6190491 3.161255 -4.8573303 2.7589111 -6.836151c-0.4024048 -1.9787903 -2.2991943 -5.336426 -5.1730957 -5.036621c-2.8739624 0.2998352 -9.656433 4.317047 -12.070557 6.835541c-2.4141235 2.5185242 -4.770813 6.176697 -2.4142456 8.275543c2.3566284 2.0988464 12.185364 5.5169067 16.553772 4.3175354c4.368469 -1.1994019 9.541931 -8.395569 9.656921 -11.513824c0.114990234 -3.1182556 -7.472534 -5.996399 -8.967041 -7.195709" fill-rule="evenodd"/><path stroke="#000000" stroke-width="1.0" stroke-linejoin="round" stroke-linecap="butt" d="m993.2576 466.2499c-0.2298584 0.5996704 -2.0114746 3.4779053 -1.3791504 3.5978699c0.6323242 0.11993408 4.770813 -1.6189575 5.1730957 -2.8781738c0.4022827 -1.2591858 -1.0925293 -4.677063 -2.7594604 -4.677063c-1.6669312 0 -6.379944 2.6982727 -7.2421265 4.677063c-0.8621826 1.9787903 -2.4414062E-4 6.4761047 2.0690308 7.195709c2.069275 0.719574 8.162476 -1.2591248 10.346741 -2.8781738c2.1842651 -1.6190491 3.161255 -4.8573303 2.7589111 -6.836151c-0.4024048 -1.9787903 -2.2991943 -5.336426 -5.1730957 -5.036621c-2.8739624 0.2998352 -9.656433 4.317047 -12.070557 6.835541c-2.4141235 2.5185242 -4.770813 6.176697 -2.4142456 8.275543c2.3566284 2.0988464 12.185364 5.5169067 16.553772 4.3175354c4.368469 -1.1994019 9.541931 -8.395569 9.656921 -11.513824c0.114990234 -3.1182556 -7.472534 -5.996399 -8.967041 -7.195709" fill-rule="evenodd"/><defs><linearGradient id="p.13" gradientUnits="userSpaceOnUse" gradientTransform="matrix(7.283995777623884 0.0 0.0 7.283995777623884 0.0 0.0)" spreadMethod="pad" x1="166.24277393263932" y1="74.1340188005176" x2="166.24275141175931" y2="81.41801457810666"><stop offset="0.0" stop-color="#ffffff"/><stop offset="1.0" stop-color="#b3b3b3"/></linearGradient></defs><path fill="url(#p.13)" d="m1234.2262 540.63806c-8.396484 -2.4909058 -7.050049 2.8150635 -10.456055 5.84729c-3.406128 3.0322266 -8.000122 6.9311523 -9.980469 12.346069c-1.9802246 5.414917 -4.1984863 14.620361 -1.9013672 20.143494c2.2972412 5.5231323 8.238647 11.154358 15.68457 12.995422c7.446045 1.8410034 22.099731 1.4081421 28.99121 -1.9490967c6.8914795 -3.3572388 9.426636 -13.429382 12.357544 -18.194397c2.9309082 -4.7650757 11.010254 -5.197815 5.227661 -10.395935c-5.782593 -5.19812 -31.52649 -18.30188 -39.923096 -20.792847z" fill-rule="evenodd"/><path stroke="#000000" stroke-width="1.0" stroke-linejoin="round" stroke-linecap="butt" d="m1234.2262 540.63806c-8.396484 -2.4909058 -7.050049 2.8150635 -10.456055 5.84729c-3.406128 3.0322266 -8.000122 6.9311523 -9.980469 12.346069c-1.9802246 5.414917 -4.1984863 14.620361 -1.9013672 20.143494c2.2972412 5.5231323 8.238647 11.154358 15.68457 12.995422c7.446045 1.8410034 22.099731 1.4081421 28.99121 -1.9490967c6.8914795 -3.3572388 9.426636 -13.429382 12.357544 -18.194397c2.9309082 -4.7650757 11.010254 -5.197815 5.227661 -10.395935c-5.782593 -5.19812 -31.52649 -18.30188 -39.923096 -20.792847z" fill-rule="evenodd"/><defs><linearGradient id="p.14" gradientUnits="userSpaceOnUse" gradientTransform="matrix(4.2114392400497245 0.0 0.0 4.2114392400497245 0.0 0.0)" spreadMethod="pad" x1="290.356611130248" y1="129.4434364543942" x2="290.35659165448385" y2="133.6548756943989"><stop offset="0.0" stop-color="#ffffff"/><stop offset="1.0" stop-color="#b3b3b3"/></linearGradient></defs><path fill="url(#p.14)" d="m1222.8192 555.58307c0.39611816 0.97473145 0.7128906 4.6570435 2.3763428 5.8483887c1.6635742 1.1913452 5.14917 1.7329712 7.6048584 1.2997437c2.4555664 -0.43328857 5.703247 -1.4083252 7.1290283 -3.899292c1.4257812 -2.4909058 2.534668 -8.772156 1.4256592 -11.046265c-1.1090088 -2.27417 -5.6242676 -2.8150635 -8.079712 -2.5984497c-2.4555664 0.21661377 -6.8911133 1.8406982 -6.6533203 3.8981934c0.2376709 2.057495 6.337036 8.446777 8.079712 8.446777c1.7426758 0 3.0893555 -7.147217 2.3763428 -8.446777c-0.7128906 -1.2995605 -6.0996094 -0.65026855 -6.6540527 0.649353c-0.5545654 1.2995605 2.772461 5.956726 3.3270264 7.1480713" fill-rule="evenodd"/><path stroke="#000000" stroke-width="1.0" stroke-linejoin="round" stroke-linecap="butt" d="m1222.8192 555.58307c0.39611816 0.97473145 0.7128906 4.6570435 2.3763428 5.8483887c1.6635742 1.1913452 5.14917 1.7329712 7.6048584 1.2997437c2.4555664 -0.43328857 5.703247 -1.4083252 7.1290283 -3.899292c1.4257812 -2.4909058 2.534668 -8.772156 1.4256592 -11.046265c-1.1090088 -2.27417 -5.6242676 -2.8150635 -8.079712 -2.5984497c-2.4555664 0.21661377 -6.8911133 1.8406982 -6.6533203 3.8981934c0.2376709 2.057495 6.337036 8.446777 8.079712 8.446777c1.7426758 0 3.0893555 -7.147217 2.3763428 -8.446777c-0.7128906 -1.2995605 -6.0996094 -0.65026855 -6.6540527 0.649353c-0.5545654 1.2995605 2.772461 5.956726 3.3270264 7.1480713" fill-rule="evenodd"/><defs><radialGradient id="p.15" gradientUnits="userSpaceOnUse" gradientTransform="matrix(-7.0490131684642225 -2.583607256627859 2.583607256627859 -7.0490131684642225 0.0 0.0)" spreadMethod="pad" cx="-52.744759645152946" cy="-58.70456320698158" fx="-52.744759645152946" fy="-58.70456320698158" r="7.049013137817383"><stop offset="0.0" stop-color="#f2f2f2" stop-opacity="0.64705884"/><stop offset="0.06428571" stop-color="#ebebeb" stop-opacity="0.69411767"/><stop offset="0.12857142" stop-color="#e4e4e4" stop-opacity="0.74509805"/><stop offset="0.19285713" stop-color="#dedede" stop-opacity="0.79607844"/><stop offset="0.25714284" stop-color="#d8d8d8" stop-opacity="0.84705883"/><stop offset="0.32142854" stop-color="#d4d4d4" stop-opacity="0.8980392"/><stop offset="0.38571426" stop-color="#d0d0d0" stop-opacity="0.9490196"/><stop offset="0.45" stop-color="#cccccc"/><stop offset="1.0" stop-color="#f3f3f3"/></radialGradient></defs><path fill="url(#p.15)" d="m203.66507 560.07477c2.426712 3.3187256 1.5679932 9.538147 3.6215363 13.390259c2.0535583 3.8521118 4.4750977 7.6713867 8.699753 9.722351c4.224655 2.0509644 11.027298 3.37146 16.648193 2.583496c5.62088 -0.7880249 12.410065 -2.8231812 17.077118 -7.3114624c4.6670685 -4.4882812 10.212128 -12.340637 10.925262 -19.618347c0.71313477 -7.27771 -2.3924255 -17.71399 -6.646393 -24.047913c-4.253952 -6.3339844 -11.407898 -11.301758 -18.87732 -13.9557495c-7.4694214 -2.6539917 -17.523376 -4.0772095 -25.939209 -1.9681396c-8.415848 2.1090088 -19.304749 9.510498 -24.555832 14.622437c-5.2510834 5.1119385 -8.302017 12.705566 -6.950653 16.049072c1.3513641 3.3434448 10.725937 2.2560425 15.058853 4.0117188c4.3329315 1.7556152 8.511993 3.2034912 10.93869 6.522278z" fill-rule="evenodd"/><path stroke="#000000" stroke-width="1.0" stroke-linejoin="round" stroke-linecap="butt" d="m203.66507 560.07477c2.426712 3.3187256 1.5679932 9.538147 3.6215363 13.390259c2.0535583 3.8521118 4.4750977 7.6713867 8.699753 9.722351c4.224655 2.0509644 11.027298 3.37146 16.648193 2.583496c5.62088 -0.7880249 12.410065 -2.8231812 17.077118 -7.3114624c4.6670685 -4.4882812 10.212128 -12.340637 10.925262 -19.618347c0.71313477 -7.27771 -2.3924255 -17.71399 -6.646393 -24.047913c-4.253952 -6.3339844 -11.407898 -11.301758 -18.87732 -13.9557495c-7.4694214 -2.6539917 -17.523376 -4.0772095 -25.939209 -1.9681396c-8.415848 2.1090088 -19.304749 9.510498 -24.555832 14.622437c-5.2510834 5.1119385 -8.302017 12.705566 -6.950653 16.049072c1.3513641 3.3434448 10.725937 2.2560425 15.058853 4.0117188c4.3329315 1.7556152 8.511993 3.2034912 10.93869 6.522278z" fill-rule="evenodd"/><defs><radialGradient id="p.16" gradientUnits="userSpaceOnUse" gradientTransform="matrix(-5.194588203450236 -1.9039226423450564 1.9039226423450564 -5.194588203450236 0.0 0.0)" spreadMethod="pad" cx="-73.61154728927318" cy="-80.53232312631195" fx="-73.61154728927318" fy="-80.53232312631195" r="5.1945881843566895"><stop offset="0.0" stop-color="#f2f2f2" stop-opacity="0.64705884"/><stop offset="0.06428571" stop-color="#ebebeb" stop-opacity="0.69411767"/><stop offset="0.12857142" stop-color="#e4e4e4" stop-opacity="0.74509805"/><stop offset="0.19285713" stop-color="#dedede" stop-opacity="0.79607844"/><stop offset="0.25714284" stop-color="#d8d8d8" stop-opacity="0.84705883"/><stop offset="0.32142854" stop-color="#d4d4d4" stop-opacity="0.8980392"/><stop offset="0.38571426" stop-color="#d0d0d0" stop-opacity="0.9490196"/><stop offset="0.45" stop-color="#cccccc"/><stop offset="1.0" stop-color="#f3f3f3"/></radialGradient></defs><path fill="url(#p.16)" d="m204.53487 559.8715c1.0444031 -1.8789673 3.6621857 -8.291138 6.266449 -11.273743c2.6042633 -2.982605 5.6996 -5.366394 9.359161 -6.621826c3.6595612 -1.2554321 8.205414 -2.0183105 12.598206 -0.91082764c4.392807 1.1074829 10.891754 3.7407837 13.758591 7.555847c2.8668365 3.8150635 3.4101715 11.30188 3.4424438 15.334534c0.03225708 4.032654 -0.9937439 6.58844 -3.2488556 8.861328c-2.2551117 2.2728882 -7.257614 4.041504 -10.281845 4.776001c-3.0242157 0.7344971 -4.838089 1.0747681 -7.8635254 -0.36914062c-3.0254364 -1.4438477 -9.232712 -4.388611 -10.289078 -8.294067c-1.056366 -3.9054565 0.87364197 -12.077942 3.9508667 -15.138611c3.0772247 -3.060669 10.773422 -4.177002 14.512466 -3.2254028c3.7390594 0.9515991 7.094635 5.616089 7.9218597 8.934998c0.82722473 3.3189087 -0.7089691 9.206116 -2.958496 10.978516c-2.249527 1.7723999 -8.013214 1.2515259 -10.5386505 -0.34417725c-2.5254211 -1.5957642 -5.1640625 -7.0025635 -4.6138916 -9.230225c0.55015564 -2.2276611 5.7184753 -4.689575 7.9148865 -4.1358643c2.1963959 0.553772 5.780716 5.8050537 5.263504 7.458374c-0.5172119 1.6533813 -6.9723206 2.0514526 -8.366791 2.461731" fill-rule="evenodd"/><path stroke="#000000" stroke-width="1.0" stroke-linejoin="round" stroke-linecap="butt" d="m204.53487 559.8715c1.0444031 -1.8789673 3.6621857 -8.291138 6.266449 -11.273743c2.6042633 -2.982605 5.6996 -5.366394 9.359161 -6.621826c3.6595612 -1.2554321 8.205414 -2.0183105 12.598206 -0.91082764c4.392807 1.1074829 10.891754 3.7407837 13.758591 7.555847c2.8668365 3.8150635 3.4101715 11.30188 3.4424438 15.334534c0.03225708 4.032654 -0.9937439 6.58844 -3.2488556 8.861328c-2.2551117 2.2728882 -7.257614 4.041504 -10.281845 4.776001c-3.0242157 0.7344971 -4.838089 1.0747681 -7.8635254 -0.36914062c-3.0254364 -1.4438477 -9.232712 -4.388611 -10.289078 -8.294067c-1.056366 -3.9054565 0.87364197 -12.077942 3.9508667 -15.138611c3.0772247 -3.060669 10.773422 -4.177002 14.512466 -3.2254028c3.7390594 0.9515991 7.094635 5.616089 7.9218597 8.934998c0.82722473 3.3189087 -0.7089691 9.206116 -2.958496 10.978516c-2.249527 1.7723999 -8.013214 1.2515259 -10.5386505 -0.34417725c-2.5254211 -1.5957642 -5.1640625 -7.0025635 -4.6138916 -9.230225c0.55015564 -2.2276611 5.7184753 -4.689575 7.9148865 -4.1358643c2.1963959 0.553772 5.780716 5.8050537 5.263504 7.458374c-0.5172119 1.6533813 -6.9723206 2.0514526 -8.366791 2.461731" fill-rule="evenodd"/><defs><radialGradient id="p.17" gradientUnits="userSpaceOnUse" gradientTransform="matrix(-3.5036073727850527 -1.2841436405877065 1.2841436405877065 -3.5036073727850527 0.0 0.0)" spreadMethod="pad" cx="-99.41522847507217" cy="-121.63313590537308" fx="-99.41522847507217" fy="-121.63313590537308" r="3.5036072731018066"><stop offset="0.0" stop-color="#f2f2f2" stop-opacity="0.64705884"/><stop offset="0.06428571" stop-color="#ebebeb" stop-opacity="0.69411767"/><stop offset="0.12857142" stop-color="#e4e4e4" stop-opacity="0.74509805"/><stop offset="0.19285713" stop-color="#dedede" stop-opacity="0.79607844"/><stop offset="0.25714284" stop-color="#d8d8d8" stop-opacity="0.84705883"/><stop offset="0.32142854" stop-color="#d4d4d4" stop-opacity="0.8980392"/><stop offset="0.38571426" stop-color="#d0d0d0" stop-opacity="0.9490196"/><stop offset="0.45" stop-color="#cccccc"/><stop offset="1.0" stop-color="#f3f3f3"/></radialGradient></defs><path fill="url(#p.17)" d="m203.02155 559.5738c-2.8801727 -0.38555908 -22.465012 -7.5637817 -23.5018 -8.613892c-1.0368042 -1.0501099 13.364044 0.87750244 17.281021 2.3131714c3.9169617 1.4356079 9.100937 6.6862183 6.2207794 6.30072z" fill-rule="evenodd"/><path stroke="#000000" stroke-width="1.0" stroke-linejoin="round" stroke-linecap="butt" d="m203.02155 559.5738c-2.8801727 -0.38555908 -22.465012 -7.5637817 -23.5018 -8.613892c-1.0368042 -1.0501099 13.364044 0.87750244 17.281021 2.3131714c3.9169617 1.4356079 9.100937 6.6862183 6.2207794 6.30072z" fill-rule="evenodd"/><defs><radialGradient id="p.18" gradientUnits="userSpaceOnUse" gradientTransform="matrix(-6.11545145945006 -6.118192585390182 6.118192585390182 -6.11545145945006 0.0 0.0)" spreadMethod="pad" cx="-50.6177294493254" cy="-40.03514834827948" fx="-50.6177294493254" fy="-40.03514834827948" r="6.118192672729492"><stop offset="0.0" stop-color="#f2f2f2" stop-opacity="0.64705884"/><stop offset="0.06428571" stop-color="#ebebeb" stop-opacity="0.69411767"/><stop offset="0.12857142" stop-color="#e4e4e4" stop-opacity="0.74509805"/><stop offset="0.19285713" stop-color="#dedede" stop-opacity="0.79607844"/><stop offset="0.25714284" stop-color="#d8d8d8" stop-opacity="0.84705883"/><stop offset="0.32142854" stop-color="#d4d4d4" stop-opacity="0.8980392"/><stop offset="0.38571426" stop-color="#d0d0d0" stop-opacity="0.9490196"/><stop offset="0.45" stop-color="#cccccc"/><stop offset="1.0" stop-color="#f3f3f3"/></radialGradient></defs><path fill="url(#p.18)" d="m45.46676 556.6652c0.80513 4.032715 -2.5904884 9.315796 -2.3482552 13.675598c0.24222946 4.359741 0.8320999 8.844543 3.8016357 12.483032c2.969532 3.6384888 8.585026 7.6984863 14.015568 9.347839c5.430542 1.649353 12.44561 2.6583252 18.56768 0.5482178c6.1220703 -2.1100464 14.455933 -6.9037476 18.16475 -13.208557c3.7088165 -6.3048096 5.2823334 -17.08252 4.0881577 -24.6203c-1.1941681 -7.537781 -5.593857 -15.055664 -11.253197 -20.606323c-5.6593475 -5.550659 -14.181068 -11.071594 -22.702866 -12.697754c-8.521801 -1.6261597 -21.513695 0.51049805 -28.427933 2.940857c-6.914238 2.4302979 -12.876726 8.038452 -13.057489 11.641235c-0.18076324 3.6027832 8.780924 6.5594482 11.972914 9.975464c3.19199 3.4160156 6.373905 6.487976 7.179035 10.520691z" fill-rule="evenodd"/><path stroke="#000000" stroke-width="1.0" stroke-linejoin="round" stroke-linecap="butt" d="m45.46676 556.6652c0.80513 4.032715 -2.5904884 9.315796 -2.3482552 13.675598c0.24222946 4.359741 0.8320999 8.844543 3.8016357 12.483032c2.969532 3.6384888 8.585026 7.6984863 14.015568 9.347839c5.430542 1.649353 12.44561 2.6583252 18.56768 0.5482178c6.1220703 -2.1100464 14.455933 -6.9037476 18.16475 -13.208557c3.7088165 -6.3048096 5.2823334 -17.08252 4.0881577 -24.6203c-1.1941681 -7.537781 -5.593857 -15.055664 -11.253197 -20.606323c-5.6593475 -5.550659 -14.181068 -11.071594 -22.702866 -12.697754c-8.521801 -1.6261597 -21.513695 0.51049805 -28.427933 2.940857c-6.914238 2.4302979 -12.876726 8.038452 -13.057489 11.641235c-0.18076324 3.6027832 8.780924 6.5594482 11.972914 9.975464c3.19199 3.4160156 6.373905 6.487976 7.179035 10.520691z" fill-rule="evenodd"/><defs><radialGradient id="p.19" gradientUnits="userSpaceOnUse" gradientTransform="matrix(-4.506603670291764 -4.5086236631417425 4.5086236631417425 -4.506603670291764 0.0 0.0)" spreadMethod="pad" cx="-70.45673375747361" cy="-55.08346892733331" fx="-70.45673375747361" fy="-55.08346892733331" r="4.5086236000061035"><stop offset="0.0" stop-color="#f2f2f2" stop-opacity="0.64705884"/><stop offset="0.06428571" stop-color="#ebebeb" stop-opacity="0.69411767"/><stop offset="0.12857142" stop-color="#e4e4e4" stop-opacity="0.74509805"/><stop offset="0.19285713" stop-color="#dedede" stop-opacity="0.79607844"/><stop offset="0.25714284" stop-color="#d8d8d8" stop-opacity="0.84705883"/><stop offset="0.32142854" stop-color="#d4d4d4" stop-opacity="0.8980392"/><stop offset="0.38571426" stop-color="#d0d0d0" stop-opacity="0.9490196"/><stop offset="0.45" stop-color="#cccccc"/><stop offset="1.0" stop-color="#f3f3f3"/></radialGradient></defs><path fill="url(#p.19)" d="m46.341293 556.8467c1.7379608 -1.2659302 6.8104362 -5.98407 10.427753 -7.595337c3.6173172 -1.6113281 7.4281654 -2.4725952 11.27615 -2.0725708c3.8479767 0.40008545 8.29274 1.6199951 11.811745 4.4729614c3.5190048 2.8529663 8.306694 7.9766235 9.302292 12.644897c0.9955902 4.668274 -1.6613846 11.691406 -3.3287354 15.364746c-1.6673508 3.6734009 -3.673378 5.5612793 -6.6753693 6.675415c-3.0019913 1.1140747 -8.284119 0.6148071 -11.336578 0.009216309c-3.052452 -0.6055908 -4.8410797 -1.0598145 -6.978153 -3.6428833c-2.1370735 -2.5830078 -6.529106 -7.866699 -5.8442917 -11.855408c0.68481445 -3.9887085 5.873966 -10.593689 9.953167 -12.076904c4.0792084 -1.4832153 11.530502 0.74121094 14.522057 3.1776733c2.9915466 2.4364624 4.073143 8.081177 3.4272308 11.441223c-0.6459122 3.3600464 -4.516365 8.056702 -7.3027115 8.718933c-2.7863464 0.66223145 -7.795784 -2.2350464 -9.415375 -4.7455444c-1.6195984 -2.510559 -1.7385178 -8.527405 -0.30220032 -10.317688c1.4363098 -1.7902222 7.160568 -1.8504028 8.920074 -0.4239502c1.7595062 1.4265137 2.801735 7.700012 1.63694 8.98291c-1.1647873 1.282898 -7.188072 -1.071228 -8.625687 -1.2854614" fill-rule="evenodd"/><path stroke="#000000" stroke-width="1.0" stroke-linejoin="round" stroke-linecap="butt" d="m46.341293 556.8467c1.7379608 -1.2659302 6.8104362 -5.98407 10.427753 -7.595337c3.6173172 -1.6113281 7.4281654 -2.4725952 11.27615 -2.0725708c3.8479767 0.40008545 8.29274 1.6199951 11.811745 4.4729614c3.5190048 2.8529663 8.306694 7.9766235 9.302292 12.644897c0.9955902 4.668274 -1.6613846 11.691406 -3.3287354 15.364746c-1.6673508 3.6734009 -3.673378 5.5612793 -6.6753693 6.675415c-3.0019913 1.1140747 -8.284119 0.6148071 -11.336578 0.009216309c-3.052452 -0.6055908 -4.8410797 -1.0598145 -6.978153 -3.6428833c-2.1370735 -2.5830078 -6.529106 -7.866699 -5.8442917 -11.855408c0.68481445 -3.9887085 5.873966 -10.593689 9.953167 -12.076904c4.0792084 -1.4832153 11.530502 0.74121094 14.522057 3.1776733c2.9915466 2.4364624 4.073143 8.081177 3.4272308 11.441223c-0.6459122 3.3600464 -4.516365 8.056702 -7.3027115 8.718933c-2.7863464 0.66223145 -7.795784 -2.2350464 -9.415375 -4.7455444c-1.6195984 -2.510559 -1.7385178 -8.527405 -0.30220032 -10.317688c1.4363098 -1.7902222 7.160568 -1.8504028 8.920074 -0.4239502c1.7595062 1.4265137 2.801735 7.700012 1.63694 8.98291c-1.1647873 1.282898 -7.188072 -1.071228 -8.625687 -1.2854614" fill-rule="evenodd"/><defs><radialGradient id="p.20" gradientUnits="userSpaceOnUse" gradientTransform="matrix(-3.039500856829153 -3.0408632508729814 3.0408632508729814 -3.039500856829153 0.0 0.0)" spreadMethod="pad" cx="-96.02511374228729" cy="-83.60932379243839" fx="-96.02511374228729" fy="-83.60932379243839" r="3.040863275527954"><stop offset="0.0" stop-color="#f2f2f2" stop-opacity="0.64705884"/><stop offset="0.06428571" stop-color="#ebebeb" stop-opacity="0.69411767"/><stop offset="0.12857142" stop-color="#e4e4e4" stop-opacity="0.74509805"/><stop offset="0.19285713" stop-color="#dedede" stop-opacity="0.79607844"/><stop offset="0.25714284" stop-color="#d8d8d8" stop-opacity="0.84705883"/><stop offset="0.32142854" stop-color="#d4d4d4" stop-opacity="0.8980392"/><stop offset="0.38571426" stop-color="#d0d0d0" stop-opacity="0.9490196"/><stop offset="0.45" stop-color="#cccccc"/><stop offset="1.0" stop-color="#f3f3f3"/></radialGradient></defs><path fill="url(#p.20)" d="m45.093742 555.9399c-2.4505653 -1.5614624 -17.197025 -16.314575 -17.695753 -17.703735c-0.4987278 -1.3891602 11.754091 6.418091 14.7033825 9.368713c2.9492912 2.9506226 5.442936 9.896423 2.9923706 8.335022z" fill-rule="evenodd"/><path stroke="#000000" stroke-width="1.0" stroke-linejoin="round" stroke-linecap="butt" d="m45.093742 555.9399c-2.4505653 -1.5614624 -17.197025 -16.314575 -17.695753 -17.703735c-0.4987278 -1.3891602 11.754091 6.418091 14.7033825 9.368713c2.9492912 2.9506226 5.442936 9.896423 2.9923706 8.335022z" fill-rule="evenodd"/><defs><radialGradient id="p.21" gradientUnits="userSpaceOnUse" gradientTransform="matrix(-6.416488562965287 -5.182850028586509 5.182850028586509 -6.416488562965287 0.0 0.0)" spreadMethod="pad" cx="-83.87092528610232" cy="-19.232256814532988" fx="-83.87092528610232" fy="-19.232256814532988" r="6.4164886474609375"><stop offset="0.0" stop-color="#f2f2f2" stop-opacity="0.64705884"/><stop offset="0.06428571" stop-color="#ebebeb" stop-opacity="0.69411767"/><stop offset="0.12857142" stop-color="#e4e4e4" stop-opacity="0.74509805"/><stop offset="0.19285713" stop-color="#dedede" stop-opacity="0.79607844"/><stop offset="0.25714284" stop-color="#d8d8d8" stop-opacity="0.84705883"/><stop offset="0.32142854" stop-color="#d4d4d4" stop-opacity="0.8980392"/><stop offset="0.38571426" stop-color="#d0d0d0" stop-opacity="0.9490196"/><stop offset="0.45" stop-color="#cccccc"/><stop offset="1.0" stop-color="#f3f3f3"/></radialGradient></defs><path fill="url(#p.21)" d="m419.67017 562.24896c1.227356 3.9238281 -1.5909424 9.534729 -0.88879395 13.84314c0.7021179 4.3084717 1.7632141 8.704468 5.1015015 12.007568c3.3383179 3.3031006 9.352814 6.7455444 14.928345 7.811096c5.575531 1.0656128 12.659241 1.3270264 18.524841 -1.4177246c5.865631 -2.744751 13.647125 -8.391174 16.668823 -15.050842c3.0217285 -6.659668 3.4465637 -17.540161 1.4614563 -24.907227c-1.9850769 -7.3670654 -7.1561584 -14.375488 -13.371948 -19.295227c-6.21579 -4.9196777 -15.275269 -9.507202 -23.922821 -10.222961c-8.6475525 -0.71569824 -21.342865 2.7816162 -27.962463 5.928528c-6.6195984 3.1469116 -11.956451 9.352295 -11.755096 12.952942c0.20135498 3.600647 9.427124 5.5924683 12.963165 8.65094c3.5360107 3.0584717 7.025635 5.77594 8.252991 9.699768z" fill-rule="evenodd"/><path stroke="#000000" stroke-width="1.0" stroke-linejoin="round" stroke-linecap="butt" d="m419.67017 562.24896c1.227356 3.9238281 -1.5909424 9.534729 -0.88879395 13.84314c0.7021179 4.3084717 1.7632141 8.704468 5.1015015 12.007568c3.3383179 3.3031006 9.352814 6.7455444 14.928345 7.811096c5.575531 1.0656128 12.659241 1.3270264 18.524841 -1.4177246c5.865631 -2.744751 13.647125 -8.391174 16.668823 -15.050842c3.0217285 -6.659668 3.4465637 -17.540161 1.4614563 -24.907227c-1.9850769 -7.3670654 -7.1561584 -14.375488 -13.371948 -19.295227c-6.21579 -4.9196777 -15.275269 -9.507202 -23.922821 -10.222961c-8.6475525 -0.71569824 -21.342865 2.7816162 -27.962463 5.928528c-6.6195984 3.1469116 -11.956451 9.352295 -11.755096 12.952942c0.20135498 3.600647 9.427124 5.5924683 12.963165 8.65094c3.5360107 3.0584717 7.025635 5.77594 8.252991 9.699768z" fill-rule="evenodd"/><defs><radialGradient id="p.22" gradientUnits="userSpaceOnUse" gradientTransform="matrix(-4.7284768982035 -3.8193766553990574 3.8193766553990574 -4.7284768982035 0.0 0.0)" spreadMethod="pad" cx="-115.66615927072328" cy="-26.89057149610256" fx="-115.66615927072328" fy="-26.89057149610256" r="4.7284770011901855"><stop offset="0.0" stop-color="#f2f2f2" stop-opacity="0.64705884"/><stop offset="0.06428571" stop-color="#ebebeb" stop-opacity="0.69411767"/><stop offset="0.12857142" stop-color="#e4e4e4" stop-opacity="0.74509805"/><stop offset="0.19285713" stop-color="#dedede" stop-opacity="0.79607844"/><stop offset="0.25714284" stop-color="#d8d8d8" stop-opacity="0.84705883"/><stop offset="0.32142854" stop-color="#d4d4d4" stop-opacity="0.8980392"/><stop offset="0.38571426" stop-color="#d0d0d0" stop-opacity="0.9490196"/><stop offset="0.45" stop-color="#cccccc"/><stop offset="1.0" stop-color="#f3f3f3"/></radialGradient></defs><path fill="url(#p.22)" d="m420.55914 562.33685c1.5946045 -1.4421387 6.140442 -6.66864 9.567657 -8.652832c3.4272156 -1.9841309 7.126251 -3.243225 10.9956665 -3.2522583c3.8694153 -0.009033203 8.419067 0.7338257 12.220764 3.197937c3.8017273 2.4641724 9.105408 7.0515137 10.589447 11.586975c1.4840393 4.5355225 -0.41555786 11.798096 -1.6852722 15.626038c-1.2697144 3.827942 -3.0651245 5.916809 -5.932953 7.341614c-2.8678284 1.4248657 -8.174103 1.4869385 -11.274048 1.2075806c-3.099945 -0.2793579 -4.9269104 -0.5418091 -7.3256226 -2.883728c-2.3987122 -2.341919 -7.325836 -7.130127 -7.0667114 -11.167725c0.25915527 -4.0375366 4.721405 -11.1521 8.6215515 -13.0578c3.9001465 -1.9056396 11.546295 -0.48205566 14.779358 1.6238403c3.2330322 2.105896 4.9059143 7.6029663 4.6189575 11.011475c-0.2869568 3.4084473 -3.639557 8.486572 -6.3407288 9.439453c-2.7011719 0.95288086 -7.989868 -1.3977661 -9.866272 -3.72229c-1.8763733 -2.324524 -2.631134 -8.293335 -1.3919983 -10.2248535c1.2391052 -1.9315186 6.925934 -2.5964966 8.826782 -1.3643799c1.9008484 1.2320557 3.6010742 7.3583984 2.578308 8.756836c-1.0227356 1.3984985 -7.2623596 -0.3050537 -8.714844 -0.36602783" fill-rule="evenodd"/><path stroke="#000000" stroke-width="1.0" stroke-linejoin="round" stroke-linecap="butt" d="m420.55914 562.33685c1.5946045 -1.4421387 6.140442 -6.66864 9.567657 -8.652832c3.4272156 -1.9841309 7.126251 -3.243225 10.9956665 -3.2522583c3.8694153 -0.009033203 8.419067 0.7338257 12.220764 3.197937c3.8017273 2.4641724 9.105408 7.0515137 10.589447 11.586975c1.4840393 4.5355225 -0.41555786 11.798096 -1.6852722 15.626038c-1.2697144 3.827942 -3.0651245 5.916809 -5.932953 7.341614c-2.8678284 1.4248657 -8.174103 1.4869385 -11.274048 1.2075806c-3.099945 -0.2793579 -4.9269104 -0.5418091 -7.3256226 -2.883728c-2.3987122 -2.341919 -7.325836 -7.130127 -7.0667114 -11.167725c0.25915527 -4.0375366 4.721405 -11.1521 8.6215515 -13.0578c3.9001465 -1.9056396 11.546295 -0.48205566 14.779358 1.6238403c3.2330322 2.105896 4.9059143 7.6029663 4.6189575 11.011475c-0.2869568 3.4084473 -3.639557 8.486572 -6.3407288 9.439453c-2.7011719 0.95288086 -7.989868 -1.3977661 -9.866272 -3.72229c-1.8763733 -2.324524 -2.631134 -8.293335 -1.3919983 -10.2248535c1.2391052 -1.9315186 6.925934 -2.5964966 8.826782 -1.3643799c1.9008484 1.2320557 3.6010742 7.3583984 2.578308 8.756836c-1.0227356 1.3984985 -7.2623596 -0.3050537 -8.714844 -0.36602783" fill-rule="evenodd"/><defs><radialGradient id="p.23" gradientUnits="userSpaceOnUse" gradientTransform="matrix(-3.1891599979187926 -2.5760098883027944 2.5760098883027944 -3.1891599979187926 0.0 0.0)" spreadMethod="pad" cx="-162.6434063041019" cy="-41.90237290744842" fx="-162.6434063041019" fy="-41.90237290744842" r="3.189160108566284"><stop offset="0.0" stop-color="#f2f2f2" stop-opacity="0.64705884"/><stop offset="0.06428571" stop-color="#ebebeb" stop-opacity="0.69411767"/><stop offset="0.12857142" stop-color="#e4e4e4" stop-opacity="0.74509805"/><stop offset="0.19285713" stop-color="#dedede" stop-opacity="0.79607844"/><stop offset="0.25714284" stop-color="#d8d8d8" stop-opacity="0.84705883"/><stop offset="0.32142854" stop-color="#d4d4d4" stop-opacity="0.8980392"/><stop offset="0.38571426" stop-color="#d0d0d0" stop-opacity="0.9490196"/><stop offset="0.45" stop-color="#cccccc"/><stop offset="1.0" stop-color="#f3f3f3"/></radialGradient></defs><path fill="url(#p.23)" d="m419.22244 561.5673c-2.602417 -1.2932129 -18.829498 -14.400452 -19.472473 -15.728699c-0.64297485 -1.3282471 12.369232 5.1377563 15.614624 7.7591553c3.2454224 2.62146 6.4602966 9.262695 3.8578491 7.9695435z" fill-rule="evenodd"/><path stroke="#000000" stroke-width="1.0" stroke-linejoin="round" stroke-linecap="butt" d="m419.22244 561.5673c-2.602417 -1.2932129 -18.829498 -14.400452 -19.472473 -15.728699c-0.64297485 -1.3282471 12.369232 5.1377563 15.614624 7.7591553c3.2454224 2.62146 6.4602966 9.262695 3.8578491 7.9695435z" fill-rule="evenodd"/><defs><radialGradient id="p.24" gradientUnits="userSpaceOnUse" gradientTransform="matrix(-6.503409408191191 -4.891739748784584 4.891739748784584 -6.503409408191191 0.0 0.0)" spreadMethod="pad" cx="-43.228891757481044" cy="-31.233549833470487" fx="-43.228891757481044" fy="-31.233549833470487" r="6.503409385681152"><stop offset="0.0" stop-color="#f2f2f2" stop-opacity="0.64705884"/><stop offset="0.06428571" stop-color="#ebebeb" stop-opacity="0.69411767"/><stop offset="0.12857142" stop-color="#e4e4e4" stop-opacity="0.74509805"/><stop offset="0.19285713" stop-color="#dedede" stop-opacity="0.79607844"/><stop offset="0.25714284" stop-color="#d8d8d8" stop-opacity="0.84705883"/><stop offset="0.32142854" stop-color="#d4d4d4" stop-opacity="0.8980392"/><stop offset="0.38571426" stop-color="#d0d0d0" stop-opacity="0.9490196"/><stop offset="0.45" stop-color="#cccccc"/><stop offset="1.0" stop-color="#f3f3f3"/></radialGradient></defs><path fill="url(#p.24)" d="m109.698456 419.39432c1.3628693 3.8796692 -1.2579803 9.586182 -0.40655518 13.868561c0.8514252 4.2824097 2.0645828 8.639801 5.5150986 11.825745c3.4505157 3.1859436 9.57991 6.4182434 15.188011 7.289856c5.6080933 0.87161255 12.69519 0.88708496 18.460602 -2.0602112c5.7654114 -2.9472961 13.344208 -8.861603 16.131836 -15.623535c2.787613 -6.7619324 2.8336334 -17.652893 0.5938873 -24.94815c-2.239746 -7.2952576 -7.6504364 -14.121429 -14.032364 -18.823425c-6.381912 -4.701996 -15.593674 -8.973236 -24.259148 -9.388519c-8.665482 -0.4152832 -21.228912 3.5213928 -27.733704 6.89682c-6.5047913 3.3754578 -11.621483 9.763611 -11.295052 13.355835c0.32643127 3.5922546 9.614075 5.263092 13.253639 8.197571c3.6395645 2.9345093 7.220886 5.529785 8.583748 9.409454z" fill-rule="evenodd"/><path stroke="#000000" stroke-width="1.0" stroke-linejoin="round" stroke-linecap="butt" d="m109.698456 419.39432c1.3628693 3.8796692 -1.2579803 9.586182 -0.40655518 13.868561c0.8514252 4.2824097 2.0645828 8.639801 5.5150986 11.825745c3.4505157 3.1859436 9.57991 6.4182434 15.188011 7.289856c5.6080933 0.87161255 12.69519 0.88708496 18.460602 -2.0602112c5.7654114 -2.9472961 13.344208 -8.861603 16.131836 -15.623535c2.787613 -6.7619324 2.8336334 -17.652893 0.5938873 -24.94815c-2.239746 -7.2952576 -7.6504364 -14.121429 -14.032364 -18.823425c-6.381912 -4.701996 -15.593674 -8.973236 -24.259148 -9.388519c-8.665482 -0.4152832 -21.228912 3.5213928 -27.733704 6.89682c-6.5047913 3.3754578 -11.621483 9.763611 -11.295052 13.355835c0.32643127 3.5922546 9.614075 5.263092 13.253639 8.197571c3.6395645 2.9345093 7.220886 5.529785 8.583748 9.409454z" fill-rule="evenodd"/><defs><radialGradient id="p.25" gradientUnits="userSpaceOnUse" gradientTransform="matrix(-4.792499848231066 -3.604826412144401 3.604826412144401 -4.792499848231066 0.0 0.0)" spreadMethod="pad" cx="-60.54144360142009" cy="-43.18724217951943" fx="-60.54144360142009" fy="-43.18724217951943" r="4.792500019073486"><stop offset="0.0" stop-color="#f2f2f2" stop-opacity="0.64705884"/><stop offset="0.06428571" stop-color="#ebebeb" stop-opacity="0.69411767"/><stop offset="0.12857142" stop-color="#e4e4e4" stop-opacity="0.74509805"/><stop offset="0.19285713" stop-color="#dedede" stop-opacity="0.79607844"/><stop offset="0.25714284" stop-color="#d8d8d8" stop-opacity="0.84705883"/><stop offset="0.32142854" stop-color="#d4d4d4" stop-opacity="0.8980392"/><stop offset="0.38571426" stop-color="#d0d0d0" stop-opacity="0.9490196"/><stop offset="0.45" stop-color="#cccccc"/><stop offset="1.0" stop-color="#f3f3f3"/></radialGradient></defs><path fill="url(#p.25)" d="m110.58978 419.45135c1.5431595 -1.4969177 5.9035034 -6.8791504 9.258942 -8.981537c3.3554382 -2.102356 7.007698 -3.4893188 10.8736725 -3.6326904c3.865982 -0.14334106 8.43782 0.44128418 12.322174 2.7724915c3.8843536 2.3312073 9.343353 6.7326355 10.983948 11.214844c1.6405945 4.4821777 -0.004837036 11.807861 -1.1403656 15.678345c-1.1355133 3.870514 -2.8568268 6.0208435 -5.6727905 7.5447083c-2.8159485 1.5238342 -8.115784 1.77005 -11.222946 1.5984192c-3.1071625 -0.17166138 -4.9417725 -0.37057495 -7.4200287 -2.628296c-2.4782486 -2.257721 -7.567955 -6.8730164 -7.4494705 -10.91803c0.1184845 -4.044983 4.329666 -11.311615 8.1603775 -13.351929c3.830719 -2.0402832 11.520218 -0.8826599 14.823914 1.1101685c3.3036957 1.9928284 5.1664276 7.4296875 4.9982758 10.846802c-0.16816711 3.4170837 -3.3414154 8.609589 -6.007263 9.655823c-2.6658325 1.0462646 -8.032059 -1.119873 -9.987793 -3.378357c-1.955719 -2.2584534 -2.917511 -8.198669 -1.7465668 -10.172455c1.1709442 -1.9738159 6.8300323 -2.8358765 8.772217 -1.6702576c1.9421692 1.1655884 3.854126 7.2304688 2.880844 8.66391c-0.97328186 1.4334106 -7.2671204 -0.052856445 -8.720535 -0.06341553" fill-rule="evenodd"/><path stroke="#000000" stroke-width="1.0" stroke-linejoin="round" stroke-linecap="butt" d="m110.58978 419.45135c1.5431595 -1.4969177 5.9035034 -6.8791504 9.258942 -8.981537c3.3554382 -2.102356 7.007698 -3.4893188 10.8736725 -3.6326904c3.865982 -0.14334106 8.43782 0.44128418 12.322174 2.7724915c3.8843536 2.3312073 9.343353 6.7326355 10.983948 11.214844c1.6405945 4.4821777 -0.004837036 11.807861 -1.1403656 15.678345c-1.1355133 3.870514 -2.8568268 6.0208435 -5.6727905 7.5447083c-2.8159485 1.5238342 -8.115784 1.77005 -11.222946 1.5984192c-3.1071625 -0.17166138 -4.9417725 -0.37057495 -7.4200287 -2.628296c-2.4782486 -2.257721 -7.567955 -6.8730164 -7.4494705 -10.91803c0.1184845 -4.044983 4.329666 -11.311615 8.1603775 -13.351929c3.830719 -2.0402832 11.520218 -0.8826599 14.823914 1.1101685c3.3036957 1.9928284 5.1664276 7.4296875 4.9982758 10.846802c-0.16816711 3.4170837 -3.3414154 8.609589 -6.007263 9.655823c-2.6658325 1.0462646 -8.032059 -1.119873 -9.987793 -3.378357c-1.955719 -2.2584534 -2.917511 -8.198669 -1.7465668 -10.172455c1.1709442 -1.9738159 6.8300323 -2.8358765 8.772217 -1.6702576c1.9421692 1.1655884 3.854126 7.2304688 2.880844 8.66391c-0.97328186 1.4334106 -7.2671204 -0.052856445 -8.720535 -0.06341553" fill-rule="evenodd"/><defs><radialGradient id="p.26" gradientUnits="userSpaceOnUse" gradientTransform="matrix(-3.232376135117278 -2.431331295744718 2.431331295744718 -3.232376135117278 0.0 0.0)" spreadMethod="pad" cx="-80.79092540550101" cy="-66.09189855423081" fx="-80.79092540550101" fy="-66.09189855423081" r="3.2323760986328125"><stop offset="0.0" stop-color="#f2f2f2" stop-opacity="0.64705884"/><stop offset="0.06428571" stop-color="#ebebeb" stop-opacity="0.69411767"/><stop offset="0.12857142" stop-color="#e4e4e4" stop-opacity="0.74509805"/><stop offset="0.19285713" stop-color="#dedede" stop-opacity="0.79607844"/><stop offset="0.25714284" stop-color="#d8d8d8" stop-opacity="0.84705883"/><stop offset="0.32142854" stop-color="#d4d4d4" stop-opacity="0.8980392"/><stop offset="0.38571426" stop-color="#d0d0d0" stop-opacity="0.9490196"/><stop offset="0.45" stop-color="#cccccc"/><stop offset="1.0" stop-color="#f3f3f3"/></radialGradient></defs><path fill="url(#p.26)" d="m109.22739 418.7285c-2.6453247 -1.2023621 -19.315239 -13.74115 -20.003899 -15.046539c-0.68865967 -1.3054199 12.537956 4.7063293 15.871941 7.214081c3.3339844 2.507782 6.7772827 9.034821 4.131958 7.8324585z" fill-rule="evenodd"/><path stroke="#000000" stroke-width="1.0" stroke-linejoin="round" stroke-linecap="butt" d="m109.22739 418.7285c-2.6453247 -1.2023621 -19.315239 -13.74115 -20.003899 -15.046539c-0.68865967 -1.3054199 12.537956 4.7063293 15.871941 7.214081c3.3339844 2.507782 6.7772827 9.034821 4.131958 7.8324585z" fill-rule="evenodd"/><path fill="#000000" fill-opacity="0.0" d="m537.2559 663.60236l316.34644 2.645691" fill-rule="evenodd"/><path stroke="#000000" stroke-width="4.0" stroke-linejoin="round" stroke-linecap="butt" d="m537.2559 663.60236l292.3473 2.4449463" fill-rule="evenodd"/><path fill="#000000" stroke="#000000" stroke-width="4.0" stroke-linecap="butt" d="m829.548 672.654l18.20697 -6.454834l-18.096497 -6.758545z" fill-rule="evenodd"/><path fill="#000000" fill-opacity="0.0" d="m646.767 608.2362l149.57483 0l0 84.566956l-149.57483 0z" fill-rule="evenodd"/><path fill="#000000" d="m665.1264 655.6362l0 -23.796875l-8.5 0l0 -4.84375l22.75 0l0 4.84375l-8.46875 0l0 23.796875l-5.78125 0zm17.226562 -23.5625l0 -5.078125l5.484375 0l0 5.078125l-5.484375 0zm0 23.5625l0 -20.75l5.484375 0l0 20.75l-5.484375 0zm10.707031 -20.75l5.046875 0l0 2.84375q2.71875 -3.3125 6.46875 -3.3125q2.0 0 3.453125 0.828125q1.46875 0.8125 2.40625 2.484375q1.375 -1.671875 2.953125 -2.484375q1.578125 -0.828125 3.375 -0.828125q2.28125 0 3.859375 0.9375q1.59375 0.921875 2.375 2.71875q0.5625 1.328125 0.5625 4.296875l0 13.265625l-5.484375 0l0 -11.859375q0 -3.078125 -0.5625 -3.984375q-0.765625 -1.171875 -2.34375 -1.171875q-1.15625 0 -2.171875 0.703125q-1.015625 0.703125 -1.46875 2.0625q-0.453125 1.359375 -0.453125 4.28125l0 9.96875l-5.484375 0l0 -11.375q0 -3.015625 -0.296875 -3.890625q-0.28125 -0.890625 -0.90625 -1.3125q-0.609375 -0.4375 -1.671875 -0.4375q-1.265625 0 -2.28125 0.6875q-1.015625 0.6875 -1.453125 1.984375q-0.4375 1.28125 -0.4375 4.265625l0 10.078125l-5.484375 0l0 -20.75zm47.98828 14.140625l5.46875 0.921875q-1.0625 3.015625 -3.34375 4.59375q-2.265625 1.5625 -5.6875 1.5625q-5.40625 0 -8.0 -3.53125q-2.0625 -2.84375 -2.0625 -7.15625q0 -5.15625 2.6875 -8.078125q2.703125 -2.921875 6.828125 -2.921875q4.625 0 7.296875 3.0625q2.6875 3.0625 2.5625 9.359375l-13.75 0q0.0625 2.453125 1.328125 3.8125q1.28125 1.34375 3.171875 1.34375q1.28125 0 2.15625 -0.703125q0.890625 -0.703125 1.34375 -2.265625zm0.3125 -5.546875q-0.0625 -2.375 -1.234375 -3.609375q-1.171875 -1.25 -2.859375 -1.25q-1.796875 0 -2.96875 1.3125q-1.171875 1.3125 -1.140625 3.546875l8.203125 0z" fill-rule="nonzero"/><path fill="#000000" fill-opacity="0.0" d="m993.1011 344.90027l41.543335 1.2598267" fill-rule="evenodd"/><path stroke="#000000" stroke-width="4.0" stroke-linejoin="round" stroke-linecap="butt" d="m993.1011 344.90027l17.55426 0.53234863" fill-rule="evenodd"/><path fill="#000000" stroke="#000000" stroke-width="4.0" stroke-linecap="butt" d="m1010.45514 352.0365l18.3443 -6.05365l-17.943787 -7.154114z" fill-rule="evenodd"/><path fill="#000000" fill-opacity="0.0" d="m146.05905 8.0l131.55905 0l0 68.220474l-131.55905 0z" fill-rule="evenodd"/><path fill="#000000" d="m184.05905 50.753124q-0.390625 5.34375 -3.953125 8.421875q-3.5625 3.078125 -9.390625 3.078125q-6.390625 0 -10.046875 -4.296875q-3.65625 -4.296875 -3.65625 -11.78125l0 -2.03125q0 -4.78125 1.6875 -8.421875q1.6875 -3.65625 4.8125 -5.59375q3.140625 -1.953125 7.28125 -1.953125q5.75 0 9.25 3.078125q3.515625 3.078125 4.0625 8.625l-6.828125 0q-0.25 -3.203125 -1.796875 -4.640625q-1.53125 -1.453125 -4.6875 -1.453125q-3.40625 0 -5.109375 2.453125q-1.6875 2.4375 -1.734375 7.59375l0 2.5q0 5.375 1.625 7.859375q1.625 2.484375 5.140625 2.484375q3.15625 0 4.71875 -1.4375q1.5625 -1.453125 1.796875 -4.484375l6.828125 0zm31.730164 -4.78125q0 4.890625 -1.734375 8.59375q-1.71875 3.6875 -4.953125 5.6875q-3.21875 2.0 -7.390625 2.0q-4.125 0 -7.359375 -1.984375q-3.234375 -1.984375 -5.015625 -5.65625q-1.765625 -3.671875 -1.796875 -8.46875l0 -1.640625q0 -4.890625 1.765625 -8.609375q1.765625 -3.734375 4.984375 -5.71875q3.234375 -2.0 7.375 -2.0q4.15625 0 7.375 2.0q3.21875 1.984375 4.984375 5.71875q1.765625 3.71875 1.765625 8.59375l0 1.484375zm-6.921875 -1.515625q0 -5.203125 -1.875 -7.90625q-1.859375 -2.71875 -5.328125 -2.71875q-3.4375 0 -5.3125 2.671875q-1.859375 2.671875 -1.875 7.84375l0 1.625q0 5.078125 1.859375 7.875q1.875 2.796875 5.375 2.796875q3.4375 0 5.28125 -2.6875q1.859375 -2.703125 1.875 -7.875l0 -1.625z" fill-rule="nonzero"/><path fill="#000000" d="m234.4552 79.3l-15.15625 0l0 -3.0l7.15625 -7.640625q1.46875 -1.609375 2.171875 -2.796875q0.71875 -1.203125 0.71875 -2.28125q0 -1.46875 -0.75 -2.3125q-0.734375 -0.84375 -2.125 -0.84375q-1.484375 0 -2.34375 1.03125q-0.859375 1.015625 -0.859375 2.6875l-4.40625 0q0 -2.03125 0.96875 -3.6875q0.96875 -1.671875 2.71875 -2.625q1.765625 -0.953125 4.0 -0.953125q3.421875 0 5.3125 1.640625q1.890625 1.640625 1.890625 4.640625q0 1.640625 -0.859375 3.34375q-0.84375 1.6875 -2.90625 3.953125l-5.03125 5.296875l9.5 0l0 3.546875z" fill-rule="nonzero"/><path fill="#000000" fill-opacity="0.0" d="m146.05905 176.71129l131.55905 0l0 68.220474l-131.55905 0z" fill-rule="evenodd"/><path fill="#000000" d="m184.05905 219.46442q-0.390625 5.34375 -3.953125 8.421875q-3.5625 3.078125 -9.390625 3.078125q-6.390625 0 -10.046875 -4.296875q-3.65625 -4.296875 -3.65625 -11.78125l0 -2.03125q0 -4.78125 1.6875 -8.421875q1.6875 -3.65625 4.8125 -5.59375q3.140625 -1.953125 7.28125 -1.953125q5.75 0 9.25 3.078125q3.515625 3.078125 4.0625 8.625l-6.828125 0q-0.25 -3.203125 -1.796875 -4.640625q-1.53125 -1.453125 -4.6875 -1.453125q-3.40625 0 -5.109375 2.453125q-1.6875 2.4375 -1.734375 7.59375l0 2.5q0 5.375 1.625 7.859375q1.625 2.484375 5.140625 2.484375q3.15625 0 4.71875 -1.4375q1.5625 -1.453125 1.796875 -4.484375l6.828125 0zm31.730164 -4.78125q0 4.890625 -1.734375 8.59375q-1.71875 3.6875 -4.953125 5.6875q-3.21875 2.0 -7.390625 2.0q-4.125 0 -7.359375 -1.984375q-3.234375 -1.984375 -5.015625 -5.65625q-1.765625 -3.671875 -1.796875 -8.46875l0 -1.640625q0 -4.890625 1.765625 -8.609375q1.765625 -3.734375 4.984375 -5.71875q3.234375 -2.0 7.375 -2.0q4.15625 0 7.375 2.0q3.21875 1.984375 4.984375 5.71875q1.765625 3.71875 1.765625 8.59375l0 1.484375zm-6.921875 -1.515625q0 -5.203125 -1.875 -7.90625q-1.859375 -2.71875 -5.328125 -2.71875q-3.4375 0 -5.3125 2.671875q-1.859375 2.671875 -1.875 7.84375l0 1.625q0 5.078125 1.859375 7.875q1.875 2.796875 5.375 2.796875q3.4375 0 5.28125 -2.6875q1.859375 -2.703125 1.875 -7.875l0 -1.625z" fill-rule="nonzero"/><path fill="#000000" d="m234.4552 248.01129l-15.15625 0l0 -3.0l7.15625 -7.640625q1.46875 -1.609375 2.171875 -2.796875q0.71875 -1.203125 0.71875 -2.28125q0 -1.46875 -0.75 -2.3125q-0.734375 -0.84375 -2.125 -0.84375q-1.484375 0 -2.34375 1.03125q-0.859375 1.015625 -0.859375 2.6875l-4.40625 0q0 -2.03125 0.96875 -3.6875q0.96875 -1.671875 2.71875 -2.625q1.765625 -0.953125 4.0 -0.953125q3.421875 0 5.3125 1.640625q1.890625 1.640625 1.890625 4.640625q0 1.640625 -0.859375 3.34375q-0.84375 1.6875 -2.90625 3.953125l-5.03125 5.296875l9.5 0l0 3.546875z" fill-rule="nonzero"/><path fill="#000000" fill-opacity="0.0" d="m189.19292 89.4895l0.91337585 97.95276" fill-rule="evenodd"/><path stroke="#000000" stroke-width="4.0" stroke-linejoin="round" stroke-linecap="butt" d="m189.19292 89.4895l0.68959045 73.9538" fill-rule="evenodd"/><path fill="#000000" stroke="#000000" stroke-width="4.0" stroke-linecap="butt" d="m183.27588 163.50491l6.775894 18.089996l6.437378 -18.213211z" fill-rule="evenodd"/><path fill="#000000" fill-opacity="0.0" d="m265.61148 197.74966l0.6833801 26.143173" fill-rule="evenodd"/><path stroke="#000000" stroke-width="4.0" stroke-linejoin="round" stroke-linecap="butt" d="m265.61148 197.74966l0.6833801 26.143173" fill-rule="evenodd"/><path fill="#000000" fill-opacity="0.0" d="m254.28694 210.86324l23.332443 -0.083984375" fill-rule="evenodd"/><path stroke="#000000" stroke-width="4.0" stroke-linejoin="round" stroke-linecap="butt" d="m254.28694 210.86324l23.332443 -0.083984375" fill-rule="evenodd"/><path fill="#000000" fill-opacity="0.0" d="m289.03018 176.71129l131.55905 0l0 68.220474l-131.55905 0z" fill-rule="evenodd"/><path fill="#000000" d="m327.9833 230.51129l-6.828125 0l0 -14.21875l-13.328125 0l0 14.21875l-6.828125 0l0 -33.171875l6.828125 0l0 13.4375l13.328125 0l0 -13.4375l6.828125 0l0 33.171875z" fill-rule="nonzero"/><path fill="#000000" d="m347.6511 248.01129l-15.15625 0l0 -3.0l7.15625 -7.640625q1.46875 -1.609375 2.171875 -2.796875q0.71875 -1.203125 0.71875 -2.28125q0 -1.46875 -0.75 -2.3125q-0.734375 -0.84375 -2.125 -0.84375q-1.484375 0 -2.34375 1.03125q-0.859375 1.015625 -0.859375 2.6875l-4.40625 0q0 -2.03125 0.96875 -3.6875q0.96875 -1.671875 2.71875 -2.625q1.765625 -0.953125 4.0 -0.953125q3.421875 0 5.3125 1.640625q1.890625 1.640625 1.890625 4.640625q0 1.640625 -0.859375 3.34375q-0.84375 1.6875 -2.90625 3.953125l-5.03125 5.296875l9.5 0l0 3.546875z" fill-rule="nonzero"/><path fill="#000000" d="m379.04636 214.68317q0 4.890625 -1.734375 8.59375q-1.71875 3.6875 -4.953125 5.6875q-3.21875 2.0 -7.390625 2.0q-4.125 0 -7.359375 -1.984375q-3.234375 -1.984375 -5.015625 -5.65625q-1.765625 -3.671875 -1.796875 -8.46875l0 -1.640625q0 -4.890625 1.765625 -8.609375q1.765625 -3.734375 4.984375 -5.71875q3.234375 -2.0 7.375 -2.0q4.15625 0 7.375 2.0q3.21875 1.984375 4.984375 5.71875q1.765625 3.71875 1.765625 8.59375l0 1.484375zm-6.921875 -1.515625q0 -5.203125 -1.875 -7.90625q-1.859375 -2.71875 -5.328125 -2.71875q-3.4375 0 -5.3125 2.671875q-1.859375 2.671875 -1.875 7.84375l0 1.625q0 5.078125 1.859375 7.875q1.875 2.796875 5.375 2.796875q3.4375 0 5.28125 -2.6875q1.859375 -2.703125 1.875 -7.875l0 -1.625z" fill-rule="nonzero"/><path fill="#000000" fill-opacity="0.0" d="m397.86746 210.56955l86.897644 0.50393677" fill-rule="evenodd"/><path stroke="#000000" stroke-width="4.0" stroke-linejoin="round" stroke-linecap="butt" d="m397.86746 210.56955l62.89804 0.3647766" fill-rule="evenodd"/><path fill="#000000" stroke="#000000" stroke-width="4.0" stroke-linecap="butt" d="m460.72717 217.54114l18.1904 -6.5015564l-18.11377 -6.712082z" fill-rule="evenodd"/><path fill="#000000" fill-opacity="0.0" d="m503.22177 176.71129l185.22836 0l0 68.220474l-185.22836 0z" fill-rule="evenodd"/><path fill="#000000" d="m542.1749 230.51129l-6.828125 0l0 -14.21875l-13.328125 0l0 14.21875l-6.828125 0l0 -33.171875l6.828125 0l0 13.4375l13.328125 0l0 -13.4375l6.828125 0l0 33.171875z" fill-rule="nonzero"/><path fill="#000000" d="m561.84265 248.01129l-15.15625 0l0 -3.0l7.15625 -7.640625q1.46875 -1.609375 2.171875 -2.796875q0.71875 -1.203125 0.71875 -2.28125q0 -1.46875 -0.75 -2.3125q-0.734375 -0.84375 -2.125 -0.84375q-1.484375 0 -2.34375 1.03125q-0.859375 1.015625 -0.859375 2.6875l-4.40625 0q0 -2.03125 0.96875 -3.6875q0.96875 -1.671875 2.71875 -2.625q1.765625 -0.953125 4.0 -0.953125q3.421875 0 5.3125 1.640625q1.890625 1.640625 1.890625 4.640625q0 1.640625 -0.859375 3.34375q-0.84375 1.6875 -2.90625 3.953125l-5.03125 5.296875l9.5 0l0 3.546875z" fill-rule="nonzero"/><path fill="#000000" d="m592.03485 219.46442q-0.390625 5.34375 -3.953125 8.421875q-3.5625 3.078125 -9.390625 3.078125q-6.390625 0 -10.046875 -4.296875q-3.65625 -4.296875 -3.65625 -11.78125l0 -2.03125q0 -4.78125 1.6875 -8.421875q1.6875 -3.65625 4.8125 -5.59375q3.140625 -1.953125 7.28125 -1.953125q5.75 0 9.25 3.078125q3.515625 3.078125 4.0625 8.625l-6.828125 0q-0.25 -3.203125 -1.796875 -4.640625q-1.53125 -1.453125 -4.6875 -1.453125q-3.40625 0 -5.109375 2.453125q-1.6875 2.4375 -1.734375 7.59375l0 2.5q0 5.375 1.625 7.859375q1.625 2.484375 5.140625 2.484375q3.15625 0 4.71875 -1.4375q1.5625 -1.453125 1.796875 -4.484375l6.828125 0zm31.730164 -4.78125q0 4.890625 -1.734375 8.59375q-1.71875 3.6875 -4.953125 5.6875q-3.21875 2.0 -7.390625 2.0q-4.125 0 -7.359375 -1.984375q-3.234375 -1.984375 -5.015625 -5.65625q-1.765625 -3.671875 -1.796875 -8.46875l0 -1.640625q0 -4.890625 1.765625 -8.609375q1.765625 -3.734375 4.984375 -5.71875q3.234375 -2.0 7.375 -2.0q4.15625 0 7.375 2.0q3.21875 1.984375 4.984375 5.71875q1.765625 3.71875 1.765625 8.59375l0 1.484375zm-6.921875 -1.515625q0 -5.203125 -1.875 -7.90625q-1.859375 -2.71875 -5.328125 -2.71875q-3.4375 0 -5.3125 2.671875q-1.859375 2.671875 -1.875 7.84375l0 1.625q0 5.078125 1.859375 7.875q1.875 2.796875 5.375 2.796875q3.4375 0 5.28125 -2.6875q1.859375 -2.703125 1.875 -7.875l0 -1.625z" fill-rule="nonzero"/><path fill="#000000" d="m631.74347 235.01129l2.34375 0q1.671875 0 2.46875 -0.828125q0.8125 -0.84375 0.8125 -2.234375q0 -1.328125 -0.796875 -2.0625q-0.796875 -0.75 -2.203125 -0.75q-1.25 0 -2.109375 0.6875q-0.84375 0.6875 -0.84375 1.796875l-4.390625 0q0 -1.734375 0.921875 -3.109375q0.9375 -1.375 2.609375 -2.140625q1.6875 -0.78125 3.703125 -0.78125q3.515625 0 5.5 1.6875q2.0 1.671875 2.0 4.625q0 1.515625 -0.9375 2.796875q-0.921875 1.265625 -2.421875 1.953125q1.859375 0.671875 2.78125 2.015625q0.921875 1.328125 0.921875 3.140625q0 2.953125 -2.15625 4.734375q-2.140625 1.765625 -5.6875 1.765625q-3.296875 0 -5.40625 -1.734375q-2.109375 -1.75 -2.109375 -4.625l4.390625 0q0 1.25 0.9375 2.046875q0.9375 0.78125 2.296875 0.78125q1.5625 0 2.453125 -0.828125q0.890625 -0.828125 0.890625 -2.203125q0 -3.296875 -3.640625 -3.296875l-2.328125 0l0 -3.4375z" fill-rule="nonzero"/><path fill="#000000" fill-opacity="0.0" d="m659.5656 210.22835l58.677185 1.2598419" fill-rule="evenodd"/><path stroke="#000000" stroke-width="4.0" stroke-linejoin="round" stroke-linecap="butt" d="m659.5656 210.22835l58.677185 1.2598419" fill-rule="evenodd"/><path fill="#000000" fill-opacity="0.0" d="m718.25854 167.4042l0.4724121 135.9685" fill-rule="evenodd"/><path stroke="#000000" stroke-width="4.0" stroke-linejoin="round" stroke-linecap="butt" d="m718.25854 167.4042l0.4724121 135.9685" fill-rule="evenodd"/><path fill="#000000" fill-opacity="0.0" d="m717.4593 167.44357l319.68512 3.7795258" fill-rule="evenodd"/><path stroke="#000000" stroke-width="4.0" stroke-linejoin="round" stroke-linecap="butt" d="m717.4593 167.44357l295.6867 3.4958038" fill-rule="evenodd"/><path fill="#000000" stroke="#000000" stroke-width="4.0" stroke-linecap="butt" d="m1013.06793 177.54584l18.229187 -6.391876l-18.072998 -6.82106z" fill-rule="evenodd"/><path fill="#000000" fill-opacity="0.0" d="m717.46063 300.5971l55.370056 1.2598572" fill-rule="evenodd"/><path stroke="#000000" stroke-width="4.0" stroke-linejoin="round" stroke-linecap="butt" d="m717.46063 300.5971l31.376282 0.7139282" fill-rule="evenodd"/><path fill="#000000" stroke="#000000" stroke-width="4.0" stroke-linecap="butt" d="m748.68665 307.91623l18.297974 -6.1922913l-17.997437 -7.0181274z" fill-rule="evenodd"/><path fill="#000000" fill-opacity="0.0" d="m1057.2599 145.53806l89.322754 0l0 47.59056l-89.322754 0z" fill-rule="evenodd"/><path fill="#000000" d="m1096.213 199.33806l-6.828125 0l0 -14.21875l-13.328125 0l0 14.21875l-6.828125 0l0 -33.171875l6.828125 0l0 13.4375l13.328125 0l0 -13.4375l6.828125 0l0 33.171875z" fill-rule="nonzero"/><path fill="#000000" d="m1108.8182 166.77556l0 4.375l4.375 0l0 3.765625l-4.375 0l0 4.375l-3.9375 0l0 -4.375l-4.375 0l0 -3.765625l4.375 0l0 -4.375l3.9375 0z" fill-rule="nonzero"/><path fill="#000000" fill-opacity="0.0" d="m781.72046 258.94226l206.55115 0l0 84.566925l-206.55115 0z" fill-rule="evenodd"/><path fill="#000000" d="m820.6736 312.74225l-6.828125 0l0 -14.21875l-13.328125 0l0 14.21875l-6.828125 0l0 -33.171875l6.828125 0l0 13.4375l13.328125 0l0 -13.4375l6.828125 0l0 33.171875zm32.011536 -11.046875q-0.390625 5.34375 -3.953125 8.421875q-3.5625 3.078125 -9.390625 3.078125q-6.390625 0 -10.046875 -4.296875q-3.65625 -4.296875 -3.65625 -11.78125l0 -2.03125q0 -4.78125 1.6875 -8.421875q1.6875 -3.65625 4.8125 -5.59375q3.140625 -1.953125 7.28125 -1.953125q5.75 0 9.25 3.078125q3.515625 3.078125 4.0625 8.625l-6.828125 0q-0.25 -3.203125 -1.796875 -4.640625q-1.53125 -1.453125 -4.6875 -1.453125q-3.40625 0 -5.109375 2.453125q-1.6875 2.4375 -1.734375 7.59375l0 2.5q0 5.375 1.625 7.859375q1.625 2.484375 5.140625 2.484375q3.15625 0 4.71875 -1.4375q1.5625 -1.453125 1.796875 -4.484375l6.828125 0zm31.730164 -4.78125q0 4.890625 -1.734375 8.59375q-1.71875 3.6875 -4.953125 5.6875q-3.21875 2.0 -7.390625 2.0q-4.125 0 -7.359375 -1.984375q-3.234375 -1.984375 -5.015625 -5.65625q-1.765625 -3.671875 -1.796875 -8.46875l0 -1.640625q0 -4.890625 1.765625 -8.609375q1.765625 -3.734375 4.984375 -5.71875q3.234375 -2.0 7.375 -2.0q4.15625 0 7.375 2.0q3.21875 1.984375 4.984375 5.71875q1.765625 3.71875 1.765625 8.59375l0 1.484375zm-6.921875 -1.515625q0 -5.203125 -1.875 -7.90625q-1.859375 -2.71875 -5.328125 -2.71875q-3.4375 0 -5.3125 2.671875q-1.859375 2.671875 -1.875 7.84375l0 1.625q0 5.078125 1.859375 7.875q1.875 2.796875 5.375 2.796875q3.4375 0 5.28125 -2.6875q1.859375 -2.703125 1.875 -7.875l0 -1.625z" fill-rule="nonzero"/><path fill="#000000" d="m899.94977 301.25787q0.3125 -3.59375 1.84375 -5.109375q1.375 -1.375 3.78125 -1.375q2.59375 0 3.96875 1.375q1.375 1.375 1.375 3.59375q0 2.234375 -1.1875 3.421875q-0.9375 0.921875 -1.390625 0.203125q0.640625 -0.6875 1.5625 0.25q1.375 1.375 1.375 3.59375q0 2.578125 -1.546875 4.15625q-1.5625 1.5625 -4.34375 1.5625q-2.59375 0 -4.140625 -1.5625q-1.5625 -1.5625 -1.5625 -3.78125l0 -1.890625l4.484375 0l0 1.703125q0 0.6875 0.453125 1.140625q0.265625 0.265625 0.765625 0.265625q0.6875 0 0.953125 -0.265625q0.453125 -0.453125 0.453125 -1.5q0 -0.875 -0.453125 -1.328125q-0.265625 -0.265625 -0.953125 -0.265625l-1.6875 0l0 -4.125l1.515625 0q0.6875 0 0.765625 -0.078125q0.453125 -0.453125 0.453125 -1.5q0 -0.5 -0.453125 -0.953125q-0.078125 -0.078125 -0.40625 -0.078125q-0.328125 0 -0.40625 0.078125q-0.625 0.625 -0.625 2.46875l-4.59375 0zm25.549072 -16.703125l0 3.765625l-12.6875 0l0 -3.765625l12.6875 0z" fill-rule="nonzero"/><path fill="#000000" fill-opacity="0.0" d="m957.51575 302.1076l32.787415 -0.25195312" fill-rule="evenodd"/><path stroke="#000000" stroke-width="4.0" stroke-linejoin="round" stroke-linecap="butt" d="m957.51575 302.1076l32.787415 -0.25195312" fill-rule="evenodd"/><path fill="#000000" fill-opacity="0.0" d="m990.584 195.93439l0.12597656 150.67715" fill-rule="evenodd"/><path stroke="#000000" stroke-width="4.0" stroke-linejoin="round" stroke-linecap="butt" d="m990.584 195.93439l0.12597656 150.67715" fill-rule="evenodd"/><path fill="#000000" fill-opacity="0.0" d="m991.8438 197.64043l44.06305 -1.2598419" fill-rule="evenodd"/><path stroke="#000000" stroke-width="4.0" stroke-linejoin="round" stroke-linecap="butt" d="m991.8438 197.64043l20.072876 -0.57392883" fill-rule="evenodd"/><path fill="#000000" stroke="#000000" stroke-width="4.0" stroke-linecap="butt" d="m1012.10547 203.67073l17.956177 -7.1230316l-18.333862 -6.085434z" fill-rule="evenodd"/><path fill="#000000" fill-opacity="0.0" d="m1037.0433 303.2467l162.2362 0l0 84.566956l-162.2362 0z" fill-rule="evenodd"/><path fill="#000000" d="m1070.809 351.16547l6.53125 2.078125q-1.5 5.46875 -5.0 8.125q-3.5 2.640625 -8.875 2.640625q-6.640625 0 -10.9375 -4.53125q-4.28125 -4.546875 -4.28125 -12.4375q0 -8.328125 4.3125 -12.9375q4.3125 -4.625 11.328125 -4.625q6.125 0 9.953125 3.625q2.28125 2.140625 3.40625 6.15625l-6.671875 1.59375q-0.59375 -2.609375 -2.46875 -4.109375q-1.875 -1.5 -4.5625 -1.5q-3.71875 0 -6.03125 2.671875q-2.3125 2.65625 -2.3125 8.625q0 6.328125 2.28125 9.03125q2.28125 2.6875 5.921875 2.6875q2.6875 0 4.625 -1.703125q1.9375 -1.71875 2.78125 -5.390625zm10.9592285 -4.21875q0 -5.09375 1.515625 -8.5625q1.140625 -2.546875 3.109375 -4.578125q1.984375 -2.03125 4.328125 -3.0q3.125 -1.328125 7.1875 -1.328125q7.390625 0 11.8125 4.578125q4.4375 4.578125 4.4375 12.734375q0 8.09375 -4.40625 12.65625q-4.390625 4.5625 -11.75 4.5625q-7.4375 0 -11.84375 -4.53125q-4.390625 -4.546875 -4.390625 -12.53125zm6.9375 -0.21875q0 5.671875 2.625 8.609375q2.625 2.921875 6.65625 2.921875q4.03125 0 6.609375 -2.90625q2.59375 -2.90625 2.59375 -8.71875q0 -5.734375 -2.515625 -8.5625q-2.515625 -2.828125 -6.6875 -2.828125q-4.171875 0 -6.734375 2.859375q-2.546875 2.859375 -2.546875 8.625z" fill-rule="nonzero"/><path fill="#000000" d="m1117.1996 375.04047l4.125 -0.5q0.203125 1.578125 1.0625 2.421875q0.875 0.828125 2.09375 0.828125q1.328125 0 2.234375 -1.0q0.90625 -1.015625 0.90625 -2.703125q0 -1.609375 -0.875 -2.546875q-0.859375 -0.953125 -2.109375 -0.953125q-0.8125 0 -1.953125 0.3125l0.46875 -3.46875q1.734375 0.046875 2.640625 -0.75q0.90625 -0.796875 0.90625 -2.125q0 -1.125 -0.671875 -1.78125q-0.65625 -0.671875 -1.765625 -0.671875q-1.09375 0 -1.875 0.765625q-0.765625 0.75 -0.9375 2.203125l-3.9375 -0.671875q0.421875 -2.015625 1.234375 -3.21875q0.828125 -1.21875 2.3125 -1.90625q1.484375 -0.6875 3.328125 -0.6875q3.140625 0 5.03125 2.0q1.578125 1.640625 1.578125 3.71875q0 2.921875 -3.21875 4.671875q1.921875 0.40625 3.0625 1.84375q1.15625 1.421875 1.15625 3.4375q0 2.9375 -2.140625 5.0q-2.140625 2.0625 -5.34375 2.0625q-3.015625 0 -5.015625 -1.734375q-1.984375 -1.734375 -2.296875 -4.546875z" fill-rule="nonzero"/><path fill="#000000" d="m1149.0636 341.97797l0 3.96875l-14.953125 0q0.234375 -2.25 1.453125 -4.265625q1.21875 -2.015625 4.796875 -5.328125q2.890625 -2.6875 3.546875 -3.65625q0.875 -1.3125 0.875 -2.609375q0 -1.421875 -0.765625 -2.1875q-0.765625 -0.78125 -2.125 -0.78125q-1.328125 0 -2.125 0.8125q-0.78125 0.8125 -0.90625 2.671875l-4.25 -0.421875q0.375 -3.53125 2.375 -5.0625q2.015625 -1.53125 5.015625 -1.53125q3.296875 0 5.171875 1.78125q1.890625 1.765625 1.890625 4.421875q0 1.5 -0.546875 2.859375q-0.53125 1.359375 -1.703125 2.84375q-0.765625 0.984375 -2.796875 2.84375q-2.015625 1.859375 -2.5625 2.46875q-0.53125 0.59375 -0.859375 1.171875l8.46875 0zm3.3172607 -1.96875l0 -4.265625l8.390625 0l0 4.265625l-8.390625 0z" fill-rule="nonzero"/></g></svg>